<svg width="50" height="50" viewBox="0 0 50 50" fill="none" xmlns="http://www.w3.org/2000/svg">
<path d="M6.04506 0.287415C3.26301 1.26891 1.46877 3.02116 0.626709 5.51128C4.18944 7.91913 9.25142 12.8928 11.2659 17.6205C12.0695 19.5062 12.734 21.6373 13.1611 23.8564C13.721 23.5432 16.7161 28.157 15.8506 27.3533C15.6497 27.1671 13.4668 26.0188 13.5171 26.7701C13.6637 28.9607 13.7443 30.5965 13.3884 32.7059C12.4609 38.205 7.38008 45.5929 7.38008 45.5929C9.73921 47.8186 11.1645 48.5278 15.2772 49.3666L23.3983 38.777C26.4551 41.189 23.9703 45.527 26.3744 45.3656C28.6379 45.2135 26.6011 41.0166 28.3192 38.8429C30.1069 41.2263 32.1536 43.1945 34.1956 44.8678C34.416 45.0918 34.3514 38.3839 34.8021 39.8481C35.241 41.2741 36.2495 45.3388 36.7501 46.7299C38.1198 48.1318 39.1226 49.3053 40.804 49.6404C44.6977 50.4162 44.3427 49.4096 48.1109 47.3101C48.1109 47.3101 41.5697 39.5019 40.0459 34.7726C38.4824 29.92 37.7928 24.3827 39.2548 19.4995C40.9199 13.9371 49.5676 5.46224 49.5676 5.46224C49.0652 4.87088 48.6767 4.40839 48.3351 4.01858C47.9659 3.59745 44.6152 5.64786 44.2646 5.3304C43.917 5.01526 46.5693 2.32908 46.0675 1.98177C45.4944 1.58521 44.7646 1.12389 43.7504 0.498563C40.3659 4.61712 37.4967 7.15522 31.872 10.6632C31.4462 8.18259 31.688 6.73978 29.8318 4.97445C27.9756 3.2089 23.9648 1.88031 20.4254 4.9118C18.8622 6.25083 19.1853 8.40999 18.3719 10.3468C15.7574 5.8317 8.84705 1.1242 6.04538 0.287836L6.04506 0.287415ZM26.8094 12.8743C27.1925 13.8638 27.0111 14.9075 26.6512 15.8934C26.2914 16.8793 25.7261 17.8537 25.1087 18.7806C24.7265 19.355 24.3249 19.9028 23.9322 20.4254C25.0703 20.0286 26.2764 19.6622 27.4654 20.1518L28.5927 20.6166L27.8676 21.5956C27.4594 22.1454 27.1161 22.6295 26.8161 23.0721C27.1958 22.8829 27.5982 22.7141 28.0323 22.5908C28.3967 22.4874 29.0322 22.7008 29.2584 23.0127C29.4845 23.3245 29.5027 23.563 29.5253 23.7805C29.5708 24.2158 29.5269 24.6386 29.4694 25.1189C29.3541 26.0791 29.1477 27.2143 29.1002 27.8676L27.2049 27.7291C27.2679 26.8619 27.4813 25.7512 27.5841 24.8946C27.5868 24.8717 27.5848 24.8679 27.5873 24.8451C26.6553 25.3719 25.6343 26.1845 24.3641 26.7171L21.671 27.8477L23.1837 25.3493C23.7284 24.4507 24.2587 23.4669 25.2108 22.0568C24.8918 22.1279 24.5608 22.2156 24.2253 22.3337C23.6678 22.5296 23.1132 22.7562 22.6334 22.9499C22.1537 23.1435 21.8027 23.3011 21.391 23.3882L19.1728 23.8595L20.3956 21.9478C21.0136 20.9823 22.3896 19.4417 23.5301 17.7291C24.1001 16.8727 24.5929 15.9947 24.8681 15.2407C25.1433 14.4866 25.1721 13.9023 25.0395 13.5595L26.8092 12.8739L26.8094 12.8743Z" fill="#860000"/>
</svg>
