<svg width="16" height="15" viewBox="0 0 16 15" fill="none" xmlns="http://www.w3.org/2000/svg">
<path d="M0.8 6.11654C-0.266667 6.80885 -0.266667 8.19462 0.8 8.88692L8.80267 14.0746C10.1213 14.9285 12.0027 14.115 12.0027 12.69L12.0027 2.31115C12.0027 0.885002 10.12 0.0715404 8.80267 0.92654L0.8 6.11654ZM14.6667 14.4231C14.6667 14.5761 14.7369 14.7228 14.8619 14.831C14.987 14.9392 15.1565 15 15.3333 15C15.5101 15 15.6797 14.9392 15.8047 14.831C15.9298 14.7228 16 14.5761 16 14.4231L16 0.576924C16 0.423914 15.9298 0.277171 15.8047 0.168977C15.6797 0.0607837 15.5101 1.22938e-06 15.3333 1.23711e-06C15.1565 1.24484e-06 14.987 0.0607837 14.8619 0.168977C14.7369 0.277171 14.6667 0.423914 14.6667 0.576924L14.6667 14.4231Z" fill="#373737"/>
</svg>
