<svg width="30" height="30" viewBox="0 0 30 30" fill="none" xmlns="http://www.w3.org/2000/svg">
<path d="M5.95 13.7476C4.68333 14.6245 4.68333 16.3798 5.95 17.2568L15.4532 23.8278C17.0191 24.9094 19.2532 23.879 19.2532 22.074L19.2532 8.92746C19.2532 7.121 17.0175 6.09062 15.4532 7.17362L5.95 13.7476ZM22.4167 24.2692C22.4167 24.463 22.5001 24.6489 22.6485 24.786C22.797 24.923 22.9984 25 23.2083 25C23.4183 25 23.6197 24.923 23.7681 24.786C23.9166 24.6489 24 24.463 24 24.2692L24 6.73077C24 6.53696 23.9166 6.35108 23.7681 6.21404C23.6197 6.07699 23.4183 6 23.2083 6C22.9984 6 22.797 6.07699 22.6485 6.21404C22.5001 6.35108 22.4167 6.53696 22.4167 6.73077L22.4167 24.2692Z" fill="#373737"/>
</svg>
