<svg width="30" height="30" viewBox="0 0 30 30" fill="none" xmlns="http://www.w3.org/2000/svg">
<path d="M7.8 14.1165C6.73333 14.8088 6.73333 16.1946 7.8 16.8869L15.8027 22.0746C17.1213 22.9285 19.0027 22.115 19.0027 20.69L19.0027 10.3112C19.0027 8.885 17.12 8.07154 15.8027 8.92654L7.8 14.1165ZM21.6667 22.4231C21.6667 22.5761 21.7369 22.7228 21.8619 22.831C21.987 22.9392 22.1565 23 22.3333 23C22.5101 23 22.6797 22.9392 22.8047 22.831C22.9298 22.7228 23 22.5761 23 22.4231L23 8.57692C23 8.42391 22.9298 8.27717 22.8047 8.16898C22.6797 8.06078 22.5101 8 22.3333 8C22.1565 8 21.987 8.06078 21.8619 8.16898C21.7369 8.27717 21.6667 8.42391 21.6667 8.57692L21.6667 22.4231Z" fill="#373737"/>
</svg>
