<svg width="20" height="18" viewBox="0 0 20 18" fill="none" xmlns="http://www.w3.org/2000/svg">
<path d="M6.50365 3.5C6.50365 3.04037 6.59413 2.58525 6.76994 2.16061C6.94575 1.73597 7.20344 1.35013 7.52829 1.02513C7.85314 0.700121 8.2388 0.442313 8.66324 0.266422C9.08768 0.0905301 9.54259 0 10.002 0C10.4614 0 10.9163 0.0905301 11.3408 0.266422C11.7652 0.442313 12.1509 0.700121 12.4757 1.02513C12.8006 1.35013 13.0582 1.73597 13.2341 2.16061C13.4099 2.58525 13.5004 3.04037 13.5004 3.5C13.5004 4.42826 13.1318 5.3185 12.4757 5.97487C11.8196 6.63125 10.9298 7 10.002 7C9.07418 7 8.18436 6.63125 7.52829 5.97487C6.87222 5.3185 6.50365 4.42826 6.50365 3.5ZM2.50553 8C3.16826 8 3.80385 7.73661 4.27247 7.26777C4.74109 6.79893 5.00435 6.16304 5.00435 5.5C5.00435 4.83696 4.74109 4.20107 4.27247 3.73223C3.80385 3.26339 3.16826 3 2.50553 3C1.8428 3 1.20722 3.26339 0.738596 3.73223C0.269976 4.20107 0.00670811 4.83696 0.00670811 5.5C0.00670811 6.16304 0.269976 6.79893 0.738596 7.26777C1.20722 7.73661 1.8428 8 2.50553 8ZM19.9973 5.5C19.9973 6.16304 19.734 6.79893 19.2654 7.26777C18.7968 7.73661 18.1612 8 17.4985 8C16.8357 8 16.2002 7.73661 15.7315 7.26777C15.2629 6.79893 14.9996 6.16304 14.9996 5.5C14.9996 4.83696 15.2629 4.20107 15.7315 3.73223C16.2002 3.26339 16.8357 3 17.4985 3C18.1612 3 18.7968 3.26339 19.2654 3.73223C19.734 4.20107 19.9973 4.83696 19.9973 5.5ZM8.50271 9C7.12336 9 6.00388 10.12 6.00388 11.5V14C6.00388 15.0609 6.42511 16.0783 7.1749 16.8284C7.9247 17.5786 8.94163 18 10.002 18C11.0624 18 12.0793 17.5786 12.8291 16.8284C13.5789 16.0783 14.0001 15.0609 14.0001 14V11.5C14.0001 10.12 12.8806 9 11.5013 9H8.50271ZM4.00482 11.5C4.00482 10.922 4.11277 10.37 4.31268 9.864L1.85184 10.524C1.21206 10.6956 0.666551 11.1143 0.335186 11.6881C0.0038205 12.2618 -0.0862848 12.9438 0.0846714 13.584L0.472489 15.034C0.608419 15.5415 0.842937 16.0172 1.16265 16.4339C1.48236 16.8507 1.88101 17.2004 2.33581 17.463C2.79062 17.7256 3.29268 17.896 3.81333 17.9645C4.33397 18.0329 4.86299 17.9981 5.37018 17.862L5.40417 17.852C4.50025 16.7721 4.00489 15.4085 4.00482 14V11.5ZM15.9992 14C15.9992 15.466 15.4734 16.81 14.5998 17.854L14.6318 17.862C15.6559 18.1363 16.7469 17.9925 17.6649 17.4621C18.583 16.9318 19.253 16.0584 19.5275 15.034L19.9153 13.584C20.0863 12.9438 19.9962 12.2618 19.6648 11.6881C19.3335 11.1143 18.7879 10.6956 18.1482 10.524L15.6933 9.864C15.8912 10.372 15.9992 10.924 15.9992 11.5V14Z" fill="#373737"/>
</svg>
