<svg width="18" height="20" viewBox="0 0 18 20" fill="none" xmlns="http://www.w3.org/2000/svg">
<path d="M3.6001 9.39701C3.6001 6.67101 3.6001 5.30801 4.4431 4.46101C5.2871 3.61401 6.6441 3.61401 9.3601 3.61401H12.2401C14.9551 3.61401 16.3131 3.61401 17.1561 4.46101C18.0001 5.30801 18.0001 6.67101 18.0001 9.39701V14.217C18.0001 16.943 18.0001 18.306 17.1561 19.153C16.3131 20 14.9551 20 12.2401 20H9.3601C6.6441 20 5.2871 20 4.4431 19.153C3.5991 18.306 3.6001 16.943 3.6001 14.217V9.39701Z" fill="#373737"/>
<path opacity="0.5" d="M1.172 1.172C-1.19209e-07 2.343 0 4.229 0 8V10C0 13.771 -1.19209e-07 15.657 1.172 16.828C1.789 17.446 2.605 17.738 3.792 17.876C3.6 17.036 3.6 15.88 3.6 14.216V9.397C3.6 6.671 3.6 5.308 4.443 4.461C5.287 3.614 6.644 3.614 9.36 3.614H12.24C13.892 3.614 15.04 3.614 15.878 3.804C15.74 2.611 15.448 1.792 14.828 1.172C13.657 -1.19209e-07 11.771 0 8 0C4.229 0 2.343 -1.19209e-07 1.172 1.172Z" fill="black"/>
</svg>
