<svg width="30" height="30" viewBox="0 0 30 30" fill="none" xmlns="http://www.w3.org/2000/svg">
<path d="M22.4289 21.4851C22.0703 21.8093 21.584 21.9914 21.0769 21.9914C20.5698 21.9914 20.0835 21.8093 19.7249 21.4851L15.5008 17.1203L11.2767 21.4837C11.0997 21.6464 10.8888 21.7757 10.6562 21.8643C10.4236 21.953 10.1739 21.9991 9.92146 22C9.66906 22.0009 9.41894 21.9567 9.18555 21.8698C8.95216 21.7829 8.74011 21.6551 8.56163 21.4937C8.38315 21.3323 8.24177 21.1406 8.14566 20.9296C8.04954 20.7186 8.00058 20.4925 8.00161 20.2643C8.00264 20.0361 8.05363 19.8104 8.15164 19.6001C8.24966 19.3898 8.39276 19.1992 8.57268 19.0391L12.9673 14.5014L8.57109 9.96088C8.39116 9.80085 8.24807 9.61019 8.15005 9.3999C8.05204 9.18962 8.00104 8.96387 8.00002 8.73568C7.99899 8.50749 8.04795 8.28137 8.14406 8.07037C8.24018 7.85937 8.38156 7.66766 8.56004 7.50631C8.73852 7.34495 8.95057 7.21714 9.18396 7.13024C9.41735 7.04335 9.66746 6.99909 9.91987 7.00001C10.1723 7.00094 10.422 7.04704 10.6546 7.13565C10.8872 7.22427 11.0981 7.35364 11.2751 7.5163L15.5008 11.8826L19.7249 7.5163C19.9019 7.35364 20.1128 7.22427 20.3454 7.13565C20.578 7.04704 20.8277 7.00094 21.0801 7.00001C21.3325 6.99909 21.5827 7.04335 21.816 7.13024C22.0494 7.21714 22.2615 7.34495 22.44 7.50631C22.6184 7.66766 22.7598 7.85937 22.8559 8.07037C22.9521 8.28137 23.001 8.50749 23 8.73568C22.999 8.96387 22.948 9.18962 22.8499 9.3999C22.7519 9.61019 22.6088 9.80085 22.4289 9.96088L18.0343 14.5014L22.4289 19.0391C22.6067 19.1997 22.7477 19.3903 22.8439 19.6002C22.9402 19.81 22.9897 20.035 22.9897 20.2621C22.9897 20.4893 22.9402 20.7142 22.8439 20.9241C22.7477 21.1339 22.6067 21.3246 22.4289 21.4851Z" fill="#373737"/>
</svg>
