<svg width="41" height="42" viewBox="0 0 41 42" fill="none" xmlns="http://www.w3.org/2000/svg">
<path d="M39.4503 39.6203C38.4771 40.4999 37.1573 40.994 35.781 40.994C34.4048 40.994 33.085 40.4999 32.1118 39.6203L20.6478 27.7771L9.18377 39.6164C8.70335 40.0578 8.131 40.4088 7.49973 40.6492C6.86846 40.8897 6.19078 41.0147 5.50576 41.0173C4.82074 41.0198 4.14195 40.8997 3.50854 40.6639C2.87513 40.4281 2.29963 40.0813 1.81525 39.6435C1.33086 39.2057 0.947176 38.6855 0.686318 38.113C0.42546 37.5405 0.292593 36.927 0.295383 36.3078C0.298172 35.6887 0.436562 35.0761 0.702569 34.5055C0.968577 33.935 1.35694 33.4176 1.84525 32.9834L13.772 20.6711L1.84093 8.35104C1.35261 7.9168 0.964253 7.39947 0.698245 6.8289C0.432238 6.25832 0.293848 5.64579 0.291059 5.02663C0.288269 4.40747 0.421136 3.79394 0.681994 3.22142C0.942852 2.64891 1.32654 2.12874 1.81092 1.69092C2.29531 1.25311 2.8708 0.906308 3.50422 0.670529C4.13763 0.43475 4.81642 0.314656 5.50144 0.317178C6.18645 0.319699 6.86414 0.444784 7.49541 0.685217C8.12667 0.925651 8.69903 1.27668 9.17945 1.71804L20.6478 13.5652L32.1118 1.71804C32.5922 1.27668 33.1646 0.925651 33.7958 0.685217C34.4271 0.444784 35.1048 0.319699 35.7898 0.317178C36.4748 0.314656 37.1536 0.43475 37.787 0.670529C38.4204 0.906308 38.9959 1.25311 39.4803 1.69092C39.9647 2.12874 40.3484 2.64891 40.6092 3.22142C40.8701 3.79394 41.003 4.40747 41.0002 5.02663C40.9974 5.64579 40.859 6.25832 40.593 6.8289C40.327 7.39947 39.9386 7.9168 39.4503 8.35104L27.5236 20.6711L39.4503 32.9834C39.9328 33.419 40.3155 33.9363 40.5767 34.5057C40.8378 35.0751 40.9723 35.6855 40.9723 36.3019C40.9723 36.9182 40.8378 37.5286 40.5767 38.098C40.3155 38.6674 39.9328 39.1847 39.4503 39.6203Z" fill="#373737"/>
</svg>
