<svg width="19" height="20" viewBox="0 0 19 20" fill="none" xmlns="http://www.w3.org/2000/svg">
<path d="M2.11111 0.5H16.8889C17.4488 0.5 17.9858 0.72242 18.3817 1.11833C18.7776 1.51424 19 2.05121 19 2.61111V17.3889C19 18.5606 18.0606 19.5 16.8889 19.5H2.11111C1.55121 19.5 1.01424 19.2776 0.61833 18.8817C0.22242 18.4858 0 17.9488 0 17.3889V2.61111C0 1.45 0.95 0.5 2.11111 0.5ZM5.27778 15.2778H13.7222V13.1667H5.27778V15.2778ZM13.7222 7.88889H11.0833V4.72222H7.91667V7.88889H5.27778L9.5 12.1111L13.7222 7.88889Z" fill="#575757"/>
</svg>
