<svg width="20" height="20" viewBox="0 0 20 20" fill="none" xmlns="http://www.w3.org/2000/svg">
<path d="M14.4771 1.00388C14.6441 1.01888 14.7171 1.22288 14.5971 1.34188L6.27712 9.66188C6.18313 9.75592 6.11583 9.87327 6.08212 10.0019L5.08212 13.8319C5.04911 13.9584 5.04977 14.0915 5.08405 14.2177C5.11833 14.3439 5.18502 14.459 5.27751 14.5515C5.37 14.644 5.48508 14.7107 5.61131 14.7449C5.73755 14.7792 5.87055 14.7799 5.99712 14.7469L9.82612 13.7469C9.95484 13.7129 10.0722 13.6452 10.1661 13.5509L18.6041 5.11288C18.6305 5.08578 18.6641 5.06681 18.701 5.05821C18.7378 5.04962 18.7764 5.05176 18.812 5.06438C18.8477 5.07701 18.879 5.09959 18.9022 5.12945C18.9255 5.15931 18.9396 5.1952 18.9431 5.23288C19.2944 8.5825 19.2742 11.9607 18.8831 15.3059C18.6601 17.2109 17.1291 18.7059 15.2311 18.9189C11.7548 19.304 8.24648 19.304 4.77012 18.9189C2.87112 18.7059 1.34012 17.2109 1.11712 15.3059C0.705101 11.7809 0.705101 8.21988 1.11712 4.69488C1.34012 2.78888 2.87112 1.29388 4.77012 1.08188C7.99463 0.724452 11.2473 0.698316 14.4771 1.00388Z" fill="#373737"/>
<path d="M15.8231 2.23702C15.8463 2.21374 15.8739 2.19527 15.9043 2.18266C15.9347 2.17006 15.9672 2.16357 16.0001 2.16357C16.033 2.16357 16.0656 2.17006 16.0959 2.18266C16.1263 2.19527 16.1539 2.21374 16.1771 2.23702L17.5911 3.65202C17.6378 3.69888 17.6641 3.76235 17.6641 3.82852C17.6641 3.89469 17.6378 3.95816 17.5911 4.00502L9.29812 12.3C9.26659 12.3315 9.22723 12.3539 9.18412 12.365L7.27012 12.865C7.22793 12.876 7.1836 12.8758 7.14152 12.8644C7.09944 12.853 7.06109 12.8307 7.03025 12.7999C6.99942 12.7691 6.97719 12.7307 6.96577 12.6886C6.95434 12.6465 6.95412 12.6022 6.96512 12.56L7.46512 10.646C7.47625 10.6029 7.49869 10.5636 7.53012 10.532L15.8231 2.23702Z" fill="#373737"/>
</svg>
