<svg width="18" height="18" viewBox="0 0 18 18" fill="none" xmlns="http://www.w3.org/2000/svg">
<path fill-rule="evenodd" clip-rule="evenodd" d="M8.29292 0.293031C8.48045 0.105559 8.73475 0.000244141 8.99992 0.000244141C9.26508 0.000244141 9.51939 0.105559 9.70692 0.293031L15.7069 6.29303L17.7069 8.29303C17.8891 8.48163 17.9899 8.73423 17.9876 8.99643C17.9853 9.25863 17.8801 9.50944 17.6947 9.69485C17.5093 9.88026 17.2585 9.98543 16.9963 9.9877C16.7341 9.98998 16.4815 9.88919 16.2929 9.70703L15.9999 9.41403V16C15.9999 16.5305 15.7892 17.0392 15.4141 17.4142C15.0391 17.7893 14.5304 18 13.9999 18H10.9999C10.7347 18 10.4803 17.8947 10.2928 17.7071C10.1053 17.5196 9.99992 17.2652 9.99992 17V14H7.99992V17C7.99992 17.2652 7.89456 17.5196 7.70703 17.7071C7.51949 17.8947 7.26514 18 6.99992 18H3.99992C3.46949 18 2.96078 17.7893 2.58571 17.4142C2.21063 17.0392 1.99992 16.5305 1.99992 16V9.41403L1.70692 9.70703C1.51832 9.88919 1.26571 9.98998 1.00352 9.9877C0.741321 9.98543 0.490508 9.88026 0.3051 9.69485C0.119692 9.50944 0.0145233 9.25863 0.0122448 8.99643C0.00996641 8.73423 0.110761 8.48163 0.292919 8.29303L2.29292 6.29303L8.29292 0.293031Z" fill="#373737"/>
</svg>
