<svg width="21" height="19" viewBox="0 0 21 19" fill="none" xmlns="http://www.w3.org/2000/svg">
<path d="M18.9788 6H13.3067L14.4417 2.633C14.6459 2.025 14.5428 1.351 14.1638 0.831C13.7848 0.311 13.1703 0 12.5224 0H10.8932C10.593 0 10.309 0.132 10.1159 0.36L5.36563 6H2.80754C1.69273 6 0.786133 6.897 0.786133 8V17C0.786133 18.103 1.69273 19 2.80754 19H16.257C16.6682 18.9986 17.0694 18.8738 17.4074 18.6421C17.7454 18.4103 18.0043 18.0825 18.15 17.702L20.9365 10.351C20.9788 10.2387 21.0004 10.1198 21.0002 10V8C21.0002 6.897 20.0936 6 18.9788 6ZM2.80754 8H4.82895V17H2.80754V8ZM18.9788 9.819L16.257 17H6.85035V7.362L11.3662 2H12.5244L10.9457 6.683C10.8945 6.83331 10.8802 6.99355 10.904 7.15043C10.9279 7.3073 10.9892 7.45629 11.0828 7.58504C11.1765 7.71379 11.2998 7.8186 11.4426 7.89076C11.5854 7.96293 11.7435 8.00037 11.9039 8H18.9788V9.819Z" fill="#575757"/>
</svg>
