<svg width="20" height="20" viewBox="0 0 20 20" fill="none" xmlns="http://www.w3.org/2000/svg">
<rect width="20" height="20" rx="2" fill="#373737"/>
<path d="M9.3252 5.45754C9.69726 5.5686 9.8592 5.71906 10.0596 6.07765C10.2598 6.4363 10.4599 7.00225 10.793 7.81203L10.8379 7.92238L10.9492 7.96632C11.9225 8.35218 12.7147 8.39842 13.3887 9.02687C13.6451 9.26628 13.8569 9.81645 13.8447 10.1109L13.8359 10.3179L15.8564 11.0474C15.6266 11.3905 15.5718 11.8083 15.6914 12.1655C15.7767 12.4201 15.9561 12.6487 16.2148 12.7778C16.3159 12.8283 16.4276 12.8622 16.5469 12.8794C16.4467 13.1228 16.3135 13.3826 16.1553 13.6353C15.9789 13.9167 15.7724 14.1904 15.5557 14.4321C15.2566 14.4081 14.7892 14.3744 14.2979 14.3765C13.6211 14.3793 12.8968 14.4246 12.3936 14.7446L12.6953 15.2193C12.9849 15.0351 13.6619 14.9417 14.3008 14.939C14.5456 14.938 14.7834 14.9458 14.998 14.9575C14.9942 14.9605 14.9902 14.9644 14.9863 14.9673C13.3139 15.9137 11.7853 16.455 8.93555 16.5347L8.78516 16.5386L8.70508 16.6655C8.27707 17.3463 7.46926 17.7916 6.56055 18.0777C5.65158 18.3637 4.65731 18.489 3.90625 18.5718L3.83398 18.5796L3.77539 18.6216C3.74439 18.6436 3.71429 18.6676 3.68359 18.69L3 18.0493V6.43703C4.38531 6.57771 5.73082 6.66746 7.0752 6.66261C6.99262 6.7854 6.91271 6.91563 6.84375 7.05324C6.66794 7.40414 6.55507 7.82025 6.68457 8.24269L7.22168 8.07765C7.14978 7.84273 7.20658 7.5848 7.34668 7.30519C7.48681 7.02559 7.70586 6.74405 7.89746 6.5005L7.88672 6.49171C8.14819 6.18474 8.45973 5.89846 8.73926 5.70656C9.03724 5.50206 9.30658 5.45215 9.3252 5.45754ZM6.1748 8.58449C4.29753 9.53309 3.65208 10.8894 3.77148 12.0005L3.83789 12.6167L4.25781 12.1616C4.69509 11.6876 4.98908 11.4448 5.42773 11.3648C4.9262 12.2788 4.82427 12.7706 4.69043 13.5366L4.57812 14.1753L5.12109 13.8198C5.41454 13.6278 5.61252 13.5464 5.77637 13.5327C5.86635 13.5252 5.95861 13.5374 6.06543 13.5718C5.86018 13.8647 5.73687 14.1293 5.69043 14.4077C5.62921 14.7747 5.70106 15.1259 5.81152 15.563L5.98438 16.2446L6.3291 15.6314C6.51562 15.3005 6.65326 15.1369 6.79492 15.0571C6.93659 14.9775 7.13129 14.9488 7.50293 14.9819L7.55273 14.4224C7.13556 14.3851 6.80368 14.4064 6.51855 14.5669C6.4136 14.626 6.3239 14.7042 6.23926 14.7915C6.23129 14.6868 6.23028 14.5896 6.24512 14.5005C6.28442 14.2649 6.40909 14.0196 6.7207 13.6392L6.93555 13.3775L6.63867 13.2144C6.3274 13.0436 6.03505 12.9467 5.72949 12.9722C5.601 12.9829 5.47611 13.0172 5.35059 13.065C5.46583 12.5287 5.63134 12.1007 6.1709 11.1997L6.41504 10.7905L5.93945 10.7739C5.29829 10.7513 4.81904 10.9361 4.37012 11.2886C4.53071 10.5632 5.1079 9.75385 6.42871 9.08644L6.1748 8.58449ZM16.3008 11.395C16.5376 11.676 16.7141 11.9826 16.7432 12.1948C16.7381 12.238 16.7302 12.2844 16.7207 12.3316C16.6162 12.3307 16.5328 12.3074 16.4658 12.2739C16.3479 12.215 16.2682 12.117 16.2246 11.9868C16.1666 11.8135 16.1834 11.5915 16.3008 11.395ZM10.666 9.42824C10.6466 9.41212 10.3667 9.66311 10.1855 9.74171C10.3444 9.98353 10.8084 10.0861 11.085 10.2017C11.0571 10.2677 11.041 10.3401 11.041 10.4165C11.041 10.7395 11.3185 10.9917 11.6338 10.9917C11.9213 10.9916 12.1762 10.7815 12.2188 10.4995C12.3319 10.5175 12.4382 10.5229 12.5586 10.4976L12.4424 9.94679C11.8919 9.87439 11.2217 9.67351 10.666 9.42824ZM9.14355 6.10793C8.09885 6.79005 7.96192 7.60634 7.91504 8.14406L8.47559 8.19289C8.52117 7.67064 8.54279 7.17165 9.45117 6.57863L9.14355 6.10793Z" fill="#F5F5F5"/>
<path d="M10.8169 5.07695C10.7464 5.07021 10.6893 5.04334 10.6458 4.99631C10.6022 4.94929 10.5833 4.89451 10.5891 4.83196C10.5949 4.76942 10.6238 4.7192 10.6758 4.6813C10.7278 4.64341 10.7889 4.62781 10.8591 4.63452L13.8455 4.91971C13.916 4.92645 13.9732 4.95333 14.0169 5.00037C14.0606 5.0474 14.0794 5.10218 14.0733 5.16469C14.0671 5.22721 14.0382 5.2775 13.9865 5.31558C13.9348 5.35365 13.8738 5.36917 13.8033 5.36214L10.8169 5.07695ZM11.065 4.31933C10.9447 4.30784 10.8413 4.26262 10.7548 4.18366C10.6682 4.10471 10.6196 4.01077 10.6089 3.90185L10.4942 2.47337C10.4859 2.47258 10.4765 2.47265 10.466 2.47358C10.4556 2.47452 10.4461 2.47451 10.4376 2.47355C10.334 2.46365 10.2489 2.42301 10.1826 2.35164C10.1162 2.28027 10.0874 2.19841 10.096 2.10608C10.1047 2.01374 10.1485 1.9389 10.2275 1.88156C10.3064 1.82421 10.3976 1.80033 10.501 1.8099C10.6044 1.81948 10.6895 1.8602 10.7563 1.93206C10.8231 2.00392 10.8519 2.08569 10.8426 2.17738C10.8402 2.20319 10.8347 2.22685 10.8263 2.24837C10.8179 2.26989 10.8087 2.28948 10.7989 2.30714L11.547 2.69111L12.415 1.81968C12.3722 1.78583 12.3386 1.74355 12.3141 1.69285C12.2897 1.64215 12.2801 1.58914 12.2853 1.53384C12.2941 1.44167 12.338 1.36675 12.4168 1.3091C12.4956 1.25144 12.5868 1.22763 12.6903 1.23766C12.7939 1.2477 12.8789 1.28842 12.9456 1.35982C13.0123 1.43122 13.0411 1.513 13.0319 1.60514C13.0267 1.66044 13.0072 1.71067 12.9736 1.75583C12.94 1.80099 12.899 1.83613 12.8505 1.86127L13.5379 2.88124L14.3452 2.64581C14.3387 2.62658 14.3333 2.60561 14.3291 2.58288C14.3249 2.56016 14.3242 2.5359 14.3268 2.51011C14.3356 2.41793 14.3794 2.34302 14.4582 2.28536C14.5371 2.22771 14.6283 2.2039 14.7318 2.21393C14.8353 2.22397 14.9204 2.26469 14.9871 2.33609C15.0537 2.40749 15.0825 2.48927 15.0734 2.58141C15.0642 2.67355 15.0205 2.74847 14.9422 2.80617C14.8638 2.86388 14.7726 2.88768 14.6684 2.87758C14.6601 2.87679 14.6509 2.87502 14.6408 2.87226C14.6307 2.86951 14.6214 2.86766 14.6129 2.8667L14.2299 4.24765C14.199 4.3526 14.1335 4.43564 14.0336 4.49679C13.9337 4.55793 13.8235 4.58276 13.703 4.57125L11.065 4.31933Z" fill="#F5F5F5"/>
</svg>
