<svg width="14" height="19" viewBox="0 0 14 19" fill="none" xmlns="http://www.w3.org/2000/svg">
<path d="M6.3252 5.00061C6.69726 5.11167 6.8592 5.26213 7.05957 5.62073C7.2598 5.97938 7.45992 6.54532 7.79297 7.3551L7.83789 7.46545L7.94922 7.5094C8.92255 7.89525 9.71473 7.9415 10.3887 8.56995C10.6451 8.80935 10.8569 9.35953 10.8447 9.65393L10.8359 9.86096L12.8564 10.5905C12.6266 10.9335 12.5718 11.3514 12.6914 11.7086C12.7767 11.9631 12.9561 12.1918 13.2148 12.3209C13.3159 12.3714 13.4276 12.4053 13.5469 12.4225C13.4467 12.6659 13.3135 12.9257 13.1553 13.1783C12.9789 13.4598 12.7724 13.7335 12.5557 13.9752C12.2566 13.9511 11.7892 13.9175 11.2979 13.9196C10.6211 13.9224 9.89679 13.9677 9.39355 14.2877L9.69531 14.7623C9.98491 14.5782 10.6619 14.4847 11.3008 14.4821C11.5456 14.481 11.7834 14.4889 11.998 14.5006C11.9942 14.5036 11.9902 14.5074 11.9863 14.5104C10.3139 15.4568 8.78534 15.9981 5.93555 16.0778L5.78516 16.0817L5.70508 16.2086C5.27707 16.8894 4.46926 17.3347 3.56055 17.6207C2.65158 17.9067 1.65731 18.0321 0.90625 18.1149L0.833984 18.1227L0.775391 18.1647C0.744386 18.1867 0.714288 18.2106 0.683594 18.233L0 17.5924V5.9801C1.38531 6.12079 2.73082 6.21053 4.0752 6.20569C3.99262 6.32848 3.91271 6.45871 3.84375 6.59631C3.66794 6.94722 3.55507 7.36333 3.68457 7.78577L4.22168 7.62073C4.14978 7.3858 4.20658 7.12788 4.34668 6.84827C4.48681 6.56867 4.70586 6.28713 4.89746 6.04358L4.88672 6.03479C5.14819 5.72782 5.45973 5.44153 5.73926 5.24963C6.03724 5.04514 6.30658 4.99523 6.3252 5.00061ZM3.1748 8.12756C1.29753 9.07617 0.652081 10.4325 0.771484 11.5436L0.837891 12.1598L1.25781 11.7047C1.69509 11.2306 1.98908 10.9878 2.42773 10.9078C1.9262 11.8218 1.82427 12.3137 1.69043 13.0797L1.57812 13.7184L2.12109 13.3629C2.41454 13.1709 2.61252 13.0895 2.77637 13.0758C2.86635 13.0683 2.95861 13.0805 3.06543 13.1149C2.86018 13.4077 2.73687 13.6724 2.69043 13.9508C2.62921 14.3178 2.70106 14.6689 2.81152 15.1061L2.98438 15.7877L3.3291 15.1744C3.51562 14.8435 3.65326 14.68 3.79492 14.6002C3.93659 14.5206 4.13129 14.4918 4.50293 14.525L4.55273 13.9655C4.13556 13.9282 3.80368 13.9495 3.51855 14.11C3.4136 14.1691 3.3239 14.2473 3.23926 14.3346C3.23129 14.2299 3.23028 14.1326 3.24512 14.0436C3.28442 13.808 3.40909 13.5626 3.7207 13.1823L3.93555 12.9205L3.63867 12.7574C3.3274 12.5867 3.03505 12.4897 2.72949 12.5153C2.601 12.526 2.47611 12.5603 2.35059 12.608C2.46583 12.0718 2.63134 11.6437 3.1709 10.7428L3.41504 10.3336L2.93945 10.317C2.29829 10.2944 1.81904 10.4792 1.37012 10.8317C1.53071 10.1062 2.1079 9.29692 3.42871 8.62952L3.1748 8.12756ZM13.3008 10.9381C13.5376 11.219 13.7141 11.5256 13.7432 11.7379C13.7381 11.781 13.7302 11.8274 13.7207 11.8746C13.6162 11.8738 13.5328 11.8505 13.4658 11.817C13.3479 11.7581 13.2682 11.66 13.2246 11.5299C13.1666 11.3566 13.1834 11.1346 13.3008 10.9381ZM7.66602 8.97131C7.64664 8.95519 7.36667 9.20618 7.18555 9.28479C7.34439 9.5266 7.80843 9.62914 8.08496 9.74475C8.05712 9.8108 8.04105 9.88317 8.04102 9.95959C8.04102 10.2826 8.31851 10.5348 8.63379 10.5348C8.92127 10.5346 9.17617 10.3246 9.21875 10.0426C9.33191 10.0605 9.43822 10.066 9.55859 10.0406L9.44238 9.48987C8.89194 9.41747 8.22172 9.21658 7.66602 8.97131ZM6.14355 5.651C5.09885 6.33312 4.96192 7.14941 4.91504 7.68713L5.47559 7.73596C5.52117 7.21372 5.54279 6.71473 6.45117 6.1217L6.14355 5.651Z" fill="#373737"/>
<path d="M7.81687 4.84831C7.74636 4.84158 7.68932 4.8147 7.64576 4.76768C7.6022 4.72066 7.58332 4.66587 7.58913 4.60333C7.59493 4.54078 7.62384 4.49056 7.67584 4.45267C7.72785 4.41477 7.78894 4.39918 7.85912 4.40588L10.8455 4.69107C10.916 4.69781 10.9732 4.72469 11.0169 4.77173C11.0606 4.81877 11.0794 4.87354 11.0733 4.93606C11.0671 4.99857 11.0382 5.04886 10.9865 5.08694C10.9348 5.12501 10.8738 5.14053 10.8033 5.13351L7.81687 4.84831ZM8.06502 4.09069C7.94473 4.0792 7.84131 4.03398 7.75476 3.95503C7.66821 3.87607 7.61958 3.78213 7.60889 3.67322L7.49417 2.24473C7.48587 2.24394 7.47649 2.24401 7.46602 2.24494C7.45555 2.24588 7.44609 2.24587 7.43765 2.24491C7.33395 2.23501 7.24893 2.19437 7.18258 2.123C7.11623 2.05163 7.08738 1.96978 7.09603 1.87744C7.10468 1.7851 7.1485 1.71026 7.22747 1.65292C7.30645 1.59558 7.39763 1.57169 7.50102 1.58127C7.60441 1.59084 7.68951 1.63156 7.75632 1.70342C7.82312 1.77528 7.85189 1.85706 7.84264 1.94874C7.84017 1.97455 7.83473 1.99821 7.82631 2.01973C7.8179 2.04125 7.80874 2.06084 7.79885 2.0785L8.54699 2.46247L9.41501 1.59104C9.3722 1.55719 9.33857 1.51491 9.31411 1.46421C9.28965 1.41351 9.28007 1.3605 9.28535 1.3052C9.29415 1.21303 9.33797 1.13811 9.41681 1.08046C9.49565 1.0228 9.58682 0.998993 9.69034 1.00903C9.79385 1.01906 9.87895 1.05978 9.94563 1.13118C10.0123 1.20259 10.0411 1.28436 10.0319 1.3765C10.0267 1.4318 10.0072 1.48203 9.97361 1.52719C9.94 1.57235 9.89897 1.6075 9.85053 1.63263L10.5379 2.6526L11.3452 2.41717C11.3387 2.39794 11.3333 2.37697 11.3291 2.35424C11.3249 2.33152 11.3242 2.30726 11.3268 2.28147C11.3356 2.1893 11.3794 2.11438 11.4582 2.05673C11.5371 1.99907 11.6283 1.97526 11.7318 1.9853C11.8353 1.99533 11.9204 2.03605 11.9871 2.10745C12.0537 2.17886 12.0825 2.26063 12.0734 2.35277C12.0643 2.44491 12.0205 2.51983 11.9422 2.57754C11.8638 2.63524 11.7726 2.65904 11.6684 2.64894C11.6601 2.64815 11.6509 2.64638 11.6408 2.64363C11.6307 2.64087 11.6214 2.63902 11.6129 2.63806L11.2299 4.01902C11.199 4.12396 11.1335 4.207 11.0336 4.26815C10.9337 4.3293 10.8235 4.35412 10.703 4.34261L8.06502 4.09069Z" fill="#373737"/>
</svg>
