<svg width="20" height="18" viewBox="0 0 20 18" fill="none" xmlns="http://www.w3.org/2000/svg">
<path d="M20 4.86645L19.9502 11.0228C19.951 11.6298 19.8292 12.231 19.5918 12.7915C19.3567 13.3505 19.0113 13.8583 18.5757 14.286C18.1401 14.7136 17.6227 15.0525 17.0533 15.2834C16.4822 15.5164 15.8698 15.6359 15.2514 15.6352H12.9318L10.9408 17.5896C10.8169 17.7159 10.6678 17.8157 10.5027 17.8827C10.3311 17.9606 10.1443 18.0006 9.95521 18C9.76718 18.0008 9.58093 17.9642 9.40767 17.8925C9.23424 17.8167 9.07841 17.707 8.94973 17.57L7.00847 15.6743H4.68891C4.07232 15.6743 3.46178 15.5549 2.89225 15.323C2.32271 15.0911 1.80537 14.7512 1.36984 14.3227C0.934304 13.8943 0.589131 13.3858 0.354078 12.8262C0.119025 12.2667 -0.00129071 11.6671 1.84025e-05 11.0619V4.61238C-0.0017133 4.00628 0.118788 3.40584 0.354575 2.84567C0.590362 2.2855 0.936772 1.77668 1.37383 1.34854C2.25723 0.4916 3.44695 0.00764048 4.68891 1.03967e-05H15.3011C15.9186 -0.00127774 16.5302 0.117146 17.1009 0.348483C17.6715 0.57982 18.1901 0.919515 18.6267 1.34807C19.0632 1.77663 19.4093 2.2856 19.645 2.84578C19.8807 3.40596 20.0013 4.00632 20 4.61238V4.86645Z" fill="#373737"/>
</svg>
