<svg width="18" height="14" viewBox="0 0 18 14" fill="none" xmlns="http://www.w3.org/2000/svg">
<path d="M7.866 11.558C8.42467 11.558 8.90067 11.3613 9.294 10.968C9.68733 10.574 9.884 10.0973 9.884 9.538V4H12.5V2.462H9.116V7.962C8.95 7.82467 8.76133 7.71667 8.55 7.638C8.33867 7.55933 8.11067 7.51967 7.866 7.519C7.30667 7.519 6.83 7.71567 6.436 8.109C6.04267 8.503 5.846 8.97967 5.846 9.539C5.846 10.0983 6.04267 10.5743 6.436 10.967C6.82933 11.3597 7.306 11.5563 7.866 11.557M1.616 14C1.15533 14 0.771 13.846 0.463 13.538C0.155 13.23 0.000666667 12.8453 0 12.384V1.616C0 1.15533 0.154333 0.771 0.463 0.463C0.771667 0.155 1.15567 0.000666667 1.615 0H16.385C16.845 0 17.229 0.154333 17.537 0.463C17.845 0.771666 17.9993 1.156 18 1.616V12.385C18 12.845 17.8457 13.2293 17.537 13.538C17.2283 13.8467 16.8443 14.0007 16.385 14H1.616Z" fill="#373737"/>
</svg>
