<svg width="29" height="29" viewBox="0 0 29 29" fill="none" xmlns="http://www.w3.org/2000/svg">
<path d="M26.9474 12.3539C27.4576 12.354 27.9496 12.5565 28.3273 12.9222C28.705 13.2878 28.9414 13.7903 28.9904 14.3316L29 14.5416V20.3753C29 22.0623 28.3904 23.6846 27.2978 24.9053C26.2051 26.126 24.7134 26.8514 23.1322 26.9309L22.8421 26.9382H11.2926L11.2653 27.3932L11.2502 27.5974C11.1736 28.646 10.2253 29.3037 9.42884 28.8589L8.99916 28.6139L8.49558 28.3091L8.21779 28.1355L7.61705 27.7432C7.18913 27.4552 6.76842 27.1551 6.35537 26.8434L5.82853 26.435L5.38653 26.0777L5.19905 25.9216C4.52989 25.3529 4.55589 24.1788 5.26747 23.5794L5.45358 23.4234L5.89147 23.0704L6.41147 22.6694L7.01084 22.2304C7.33248 22.0015 7.65822 21.7793 7.9879 21.5639L8.57084 21.192L9.084 20.8843L9.51642 20.6363C10.306 20.1988 11.1681 20.7603 11.2434 21.7389L11.2954 22.5629H22.8421C23.3524 22.5629 23.8443 22.3603 24.222 21.9947C24.5998 21.629 24.8362 21.1266 24.8852 20.5853L24.8947 20.3753V14.5416C24.8947 13.9614 25.111 13.4049 25.4959 12.9947C25.8809 12.5844 26.403 12.3539 26.9474 12.3539ZM22.5712 3.14109L23.0008 3.38611L23.5044 3.69092C23.5956 3.74537 23.6882 3.80322 23.7822 3.86447L24.3829 4.25679C24.8109 4.54484 25.2316 4.84489 25.6446 5.15663L26.1715 5.56499L26.6135 5.9223L26.8009 6.07836C27.4701 6.64714 27.4441 7.82117 26.7325 8.42058L26.5464 8.57663L26.1085 8.92957L25.5885 9.33064C25.074 9.7166 24.5483 10.0853 24.0121 10.4361L23.4292 10.808L22.916 11.1157L22.4836 11.3637C21.694 11.8012 20.8319 11.2397 20.758 10.2611L20.7033 9.4371H9.1579C8.6135 9.4371 8.09141 9.66758 7.70646 10.0778C7.32152 10.4881 7.10526 11.0445 7.10526 11.6247V17.4584C7.10526 18.0386 6.889 18.5951 6.50406 19.0053C6.11912 19.4156 5.59702 19.6461 5.05263 19.6461C4.50824 19.6461 3.98615 19.4156 3.6012 19.0053C3.21626 18.5951 3 18.0386 3 17.4584V11.6247C3 9.88414 3.64878 8.21485 4.80361 6.98406C5.95843 5.75328 7.52472 5.06183 9.1579 5.06183H20.7074L20.7498 4.40263C20.8264 3.35402 21.7747 2.69627 22.5712 3.14109Z" fill="#373737"/>
<circle cx="8" cy="8" r="8" fill="#373737"/>
</svg>
