<svg width="23" height="27" viewBox="0 0 23 27" fill="none" xmlns="http://www.w3.org/2000/svg">
<path d="M22.9991 13.0936C23.0062 13.5775 22.8937 14.0569 22.6699 14.4974C22.4347 14.9635 22.0742 15.3678 21.6196 15.6767L6.49203 26.2198C5.95949 26.5834 5.32439 26.807 4.65792 26.8655H4.29736C3.75244 26.8657 3.21522 26.7503 2.72974 26.5286C2.14065 26.2696 1.64212 25.8709 1.28835 25.3758C0.934584 24.8808 0.739113 24.3084 0.723188 23.7209V4.06668C0.719939 3.48652 0.899222 2.91728 1.2405 2.42415C1.57077 1.93106 2.04385 1.52717 2.60961 1.2553C3.17537 0.983437 3.81273 0.853716 4.45412 0.879891C5.09998 0.907969 5.72703 1.08766 6.27256 1.39932L21.4158 10.4403C21.8767 10.7266 22.2623 11.1001 22.5445 11.5353C22.8423 12.0126 22.9991 12.5475 22.9991 13.0936Z" fill="#373737"/>
</svg>
