<svg width="14" height="12" viewBox="0 0 14 12" fill="none" xmlns="http://www.w3.org/2000/svg">
<path d="M11.5 11V1C11.5 0.71667 11.596 0.479337 11.788 0.288004C11.98 0.0966702 12.2173 0.000670115 12.5 3.44827e-06C12.7827 -0.000663218 13.0203 0.0953369 13.213 0.288004C13.4057 0.48067 13.5013 0.718003 13.5 1V11C13.5 11.2833 13.404 11.521 13.212 11.713C13.02 11.905 12.7827 12.0007 12.5 12C12.2173 11.9993 11.98 11.9033 11.788 11.712C11.596 11.5207 11.5 11.2833 11.5 11ZM0.5 10.125V1.875C0.5 1.575 0.6 1.33334 0.8 1.15C1 0.96667 1.23333 0.875003 1.5 0.875003C1.58333 0.875003 1.675 0.883337 1.775 0.900004C1.875 0.91667 1.96667 0.958337 2.05 1.025L8.25 5.175C8.4 5.275 8.51267 5.396 8.588 5.538C8.66333 5.68 8.70067 5.834 8.7 6C8.69933 6.166 8.662 6.32034 8.588 6.463C8.514 6.60567 8.40133 6.72634 8.25 6.825L2.05 10.975C1.96667 11.0417 1.875 11.0833 1.775 11.1C1.675 11.1167 1.58333 11.125 1.5 11.125C1.23333 11.125 1 11.0333 0.8 10.85C0.6 10.6667 0.5 10.425 0.5 10.125Z" fill="#373737"/>
</svg>
