<svg width="29" height="20" viewBox="0 0 29 20" fill="none" xmlns="http://www.w3.org/2000/svg">
<path fill-rule="evenodd" clip-rule="evenodd" d="M9 4.82582C8.8697 4.7509 8.72189 4.71146 8.57143 4.71146C8.42098 4.71146 8.27317 4.7509 8.14287 4.82581C8.01257 4.90073 7.90436 5.00848 7.82913 5.13824C7.7539 5.26799 7.71429 5.41518 7.71429 5.56501V14.4353C7.71429 14.5852 7.7539 14.7324 7.82913 14.8621C7.90436 14.9919 8.01257 15.0996 8.14287 15.1745C8.27317 15.2495 8.42098 15.2889 8.57143 15.2889C8.72189 15.2889 8.8697 15.2495 9 15.1745L11.1429 13.9437V6.05667L9 4.82582ZM11.484 4.28295L9.85714 3.34743C8.14286 2.3607 6 3.59326 6 5.56501V14.4353C6 16.4071 8.14286 17.6388 9.85714 16.6529L11.484 15.7174C12.1569 16.874 13.7014 17.3998 15 16.6529L22.7143 12.2178C24.4286 11.2319 24.4286 8.76847 22.7143 7.7826L15 3.34743C13.7014 2.60056 12.1569 3.12636 11.484 4.28295Z" fill="#373737"/>
</svg>
