<svg width="29" height="20" viewBox="0 0 29 20" fill="none" xmlns="http://www.w3.org/2000/svg">
<path d="M11.9998 3H9.99995C9.44769 3 9 3.4349 9 3.97139V15.628C9 16.1645 9.44769 16.5994 9.99995 16.5994H11.9998C12.5521 16.5994 12.9998 16.1645 12.9998 15.628V3.97139C12.9998 3.4349 12.5521 3 11.9998 3Z" fill="#373737"/>
<path d="M19.9998 3H17.9999C17.4477 3 17 3.4349 17 3.97139V15.628C17 16.1645 17.4477 16.5994 17.9999 16.5994H19.9998C20.5521 16.5994 20.9998 16.1645 20.9998 15.628V3.97139C20.9998 3.4349 20.5521 3 19.9998 3Z" fill="#373737"/>
</svg>
