<svg width="25" height="29" viewBox="0 0 25 29" fill="none" xmlns="http://www.w3.org/2000/svg">
<path d="M6.05569 0H2.01889C0.904157 0 0.000488281 0.903669 0.000488281 2.0184V26.2392C0.000488281 27.354 0.904157 28.2576 2.01889 28.2576H6.05569C7.17043 28.2576 8.07409 27.354 8.07409 26.2392V2.0184C8.07409 0.903669 7.17043 0 6.05569 0Z" fill="#373737"/>
<path d="M22.2032 0H18.1664C17.0516 0 16.1479 0.903669 16.1479 2.0184V26.2392C16.1479 27.354 17.0516 28.2576 18.1664 28.2576H22.2032C23.3179 28.2576 24.2216 27.354 24.2216 26.2392V2.0184C24.2216 0.903669 23.3179 0 22.2032 0Z" fill="#373737"/>
</svg>
