<svg width="19" height="19" viewBox="0 0 19 19" fill="none" xmlns="http://www.w3.org/2000/svg">
<path d="M17.4167 0H1.58333C1.16341 0 0.76068 0.166815 0.463748 0.463748C0.166815 0.76068 0 1.16341 0 1.58333V17.4167C0 17.8366 0.166815 18.2393 0.463748 18.5363C0.76068 18.8332 1.16341 19 1.58333 19H17.4167C17.8366 19 18.2393 18.8332 18.5363 18.5363C18.8332 18.2393 19 17.8366 19 17.4167V1.58333C19 1.16341 18.8332 0.76068 18.5363 0.463748C18.2393 0.166815 17.8366 0 17.4167 0ZM3.16667 3.95833H15.8333C16.0433 3.95833 16.2447 4.04174 16.3931 4.19021C16.5416 4.33867 16.625 4.54004 16.625 4.75C16.625 4.95996 16.5416 5.16133 16.3931 5.30979C16.2447 5.45826 16.0433 5.54167 15.8333 5.54167H3.16667C2.9567 5.54167 2.75534 5.45826 2.60687 5.30979C2.45841 5.16133 2.375 4.95996 2.375 4.75C2.375 4.54004 2.45841 4.33867 2.60687 4.19021C2.75534 4.04174 2.9567 3.95833 3.16667 3.95833ZM3.16667 8.70833H10.2917C10.5016 8.70833 10.703 8.79174 10.8515 8.94021C10.9999 9.08867 11.0833 9.29004 11.0833 9.5C11.0833 9.70996 10.9999 9.91133 10.8515 10.0598C10.703 10.2083 10.5016 10.2917 10.2917 10.2917H3.16667C2.9567 10.2917 2.75534 10.2083 2.60687 10.0598C2.45841 9.91133 2.375 9.70996 2.375 9.5C2.375 9.29004 2.45841 9.08867 2.60687 8.94021C2.75534 8.79174 2.9567 8.70833 3.16667 8.70833ZM7.125 15.0417H3.16667C2.9567 15.0417 2.75534 14.9583 2.60687 14.8098C2.45841 14.6613 2.375 14.46 2.375 14.25C2.375 14.04 2.45841 13.8387 2.60687 13.6902C2.75534 13.5417 2.9567 13.4583 3.16667 13.4583H7.125C7.33496 13.4583 7.53633 13.5417 7.68479 13.6902C7.83326 13.8387 7.91667 14.04 7.91667 14.25C7.91667 14.46 7.83326 14.6613 7.68479 14.8098C7.53633 14.9583 7.33496 15.0417 7.125 15.0417ZM17.3761 9.75036C17.3432 9.849 17.2912 9.9402 17.2231 10.0188C17.155 10.0973 17.0721 10.1617 16.9791 10.2082C16.8861 10.2547 16.7848 10.2824 16.6811 10.2897C16.5774 10.2971 16.4733 10.284 16.3746 10.2511L15.0417 9.80677V14.25C15.0418 14.7542 14.8815 15.2453 14.584 15.6524C14.2864 16.0594 13.8671 16.3612 13.3866 16.514C12.9061 16.6668 12.3895 16.6628 11.9115 16.5025C11.4335 16.3421 11.0189 16.0339 10.7277 15.6222C10.4365 15.2106 10.2839 14.717 10.292 14.2129C10.3 13.7088 10.4683 13.2203 10.7724 12.8181C11.0765 12.416 11.5007 12.1211 11.9836 11.9761C12.4665 11.8311 12.983 11.8435 13.4583 12.0116V8.70833C13.4583 8.58289 13.4881 8.45923 13.5453 8.34756C13.6024 8.23589 13.6853 8.13941 13.7871 8.06605C13.8889 7.9927 14.0066 7.94458 14.1306 7.92566C14.2546 7.90674 14.3814 7.91757 14.5004 7.95724L16.8754 8.74891C16.974 8.78178 17.0652 8.83376 17.1438 8.90188C17.2223 8.97 17.2867 9.05293 17.3332 9.14592C17.3797 9.23892 17.4074 9.34016 17.4147 9.44387C17.4221 9.54758 17.409 9.65173 17.3761 9.75036Z" fill="#373737"/>
</svg>
