<svg width="21" height="22" viewBox="0 0 21 22" fill="none" xmlns="http://www.w3.org/2000/svg">
<path fill-rule="evenodd" clip-rule="evenodd" d="M17.5 0.5C18.3927 0.49995 19.2518 0.841046 19.9013 1.4535C20.5508 2.06595 20.9418 2.90346 20.9942 3.79467L21 4V18C21 18.8927 20.659 19.7518 20.0465 20.4013C19.4341 21.0508 18.5965 21.4418 17.7053 21.4942L17.5 21.5H3.5C2.60725 21.5 1.74823 21.159 1.0987 20.5465C0.449159 19.9341 0.0582079 19.0965 0.00583347 18.2053L5.43719e-09 18V4C-4.97253e-05 3.10725 0.341046 2.24823 0.953498 1.5987C1.56595 0.949159 2.40346 0.558208 3.29467 0.505833L3.5 0.5H17.5ZM6.41667 13.3333C5.98164 13.3334 5.56221 13.4954 5.24018 13.7879C4.91815 14.0804 4.7166 14.4823 4.67483 14.9153L4.66667 15.0833L4.67483 15.263C4.7168 15.6959 4.91844 16.0976 5.24045 16.3899C5.56246 16.6822 5.98177 16.8441 6.41667 16.8441C6.85156 16.8441 7.27087 16.6822 7.59288 16.3899C7.9149 16.0976 8.11653 15.6959 8.1585 15.263L8.16667 15.095L8.1585 14.9153C8.11674 14.4823 7.91519 14.0804 7.59316 13.7879C7.27112 13.4954 6.8517 13.3334 6.41667 13.3333ZM14.5833 13.3333C14.1483 13.3334 13.7289 13.4954 13.4068 13.7879C13.0848 14.0804 12.8833 14.4823 12.8415 14.9153L12.8333 15.095C12.8336 15.5444 13.0067 15.9765 13.3168 16.3018C13.6269 16.627 14.0503 16.8205 14.4992 16.8421C14.9481 16.8637 15.3881 16.7118 15.7281 16.4178C16.068 16.1238 16.2818 15.7103 16.3252 15.263L16.3333 15.0833C16.3333 14.6192 16.149 14.1741 15.8208 13.8459C15.4926 13.5177 15.0475 13.3333 14.5833 13.3333ZM10.5 9.25C10.065 9.25002 9.64554 9.41207 9.32351 9.70456C9.00148 9.99704 8.79993 10.399 8.75817 10.832L8.75 11.0117C8.75022 11.4611 8.92334 11.8932 9.23348 12.2185C9.54361 12.5437 9.967 12.7372 10.4159 12.7588C10.8648 12.7804 11.3048 12.6284 11.6447 12.3345C11.9847 12.0405 12.1985 11.627 12.2418 11.1797L12.25 11C12.25 10.5359 12.0656 10.0908 11.7374 9.76256C11.4092 9.43437 10.9641 9.25 10.5 9.25ZM6.41667 5.16667C5.98164 5.16669 5.56221 5.32874 5.24018 5.62122C4.91815 5.9137 4.7166 6.31565 4.67483 6.74867L4.66667 6.91667L4.67483 7.09633C4.7168 7.5292 4.91844 7.93093 5.24045 8.22323C5.56246 8.51553 5.98177 8.67746 6.41667 8.67746C6.85156 8.67746 7.27087 8.51553 7.59288 8.22323C7.9149 7.93093 8.11653 7.5292 8.1585 7.09633L8.16667 6.92833L8.1585 6.74867C8.11674 6.31565 7.91519 5.9137 7.59316 5.62122C7.27112 5.32874 6.8517 5.16669 6.41667 5.16667ZM14.5833 5.16667C14.1483 5.16669 13.7289 5.32874 13.4068 5.62122C13.0848 5.9137 12.8833 6.31565 12.8415 6.74867L12.8333 6.92833C12.8336 7.37775 13.0067 7.80986 13.3168 8.13512C13.6269 8.46037 14.0503 8.65385 14.4992 8.67544C14.9481 8.69704 15.3881 8.54511 15.7281 8.25113C16.068 7.95715 16.2818 7.54366 16.3252 7.09633L16.3333 6.91667C16.3333 6.45254 16.149 6.00742 15.8208 5.67923C15.4926 5.35104 15.0475 5.16667 14.5833 5.16667Z" fill="#373737"/>
</svg>
