<svg width="30" height="30" viewBox="0 0 30 30" fill="none" xmlns="http://www.w3.org/2000/svg">
<path fill-rule="evenodd" clip-rule="evenodd" d="M19.2845 2.77081C20.1662 2.55092 21.1001 2.68195 21.895 3.13711C22.6899 3.59226 23.2858 4.33713 23.5607 5.2193L23.6178 5.42409L27.1236 19.4848C27.3472 20.3814 27.2254 21.3282 26.7831 22.1313C26.3409 22.9345 25.6116 23.5334 24.7444 23.8055L24.5431 23.8619L10.7155 27.3095C9.83376 27.5294 8.8999 27.3984 8.105 26.9432C7.3101 26.4881 6.71424 25.7432 6.43935 24.861L6.38217 24.6562L2.87643 10.5955C2.65283 9.6989 2.77462 8.75215 3.21688 7.94898C3.65914 7.1458 4.38844 6.54691 5.25556 6.27484L5.4569 6.21842L19.2845 2.77081ZM11.5512 18.3892C11.1216 18.4963 10.7479 18.7624 10.5031 19.1354C10.2582 19.5085 10.1598 19.9618 10.227 20.407L10.261 20.5777L10.3141 20.7561C10.4639 21.1806 10.7637 21.5344 11.1549 21.7486C11.5461 21.9629 12.0008 22.0223 12.4304 21.9152C12.8599 21.8081 13.2335 21.5422 13.4784 21.1693C13.7232 20.7965 13.8218 20.3433 13.7548 19.8983L13.7208 19.7275L13.6678 19.5491C13.5181 19.1245 13.2184 18.7704 12.8271 18.556C12.4358 18.3415 11.9809 18.2821 11.5512 18.3892ZM19.6173 16.3781C19.1877 16.4852 18.814 16.7513 18.5692 17.1243C18.3243 17.4974 18.2259 17.9507 18.2931 18.3959L18.33 18.5783C18.4428 19.0296 18.722 19.421 19.1097 19.6713C19.4975 19.9216 19.9641 20.0116 20.4129 19.9228C20.8617 19.8339 21.2582 19.573 21.5204 19.194C21.7825 18.815 21.8901 18.3471 21.8209 17.8872L21.784 17.7047C21.6678 17.2386 21.3742 16.8369 20.9679 16.5881C20.5616 16.3393 20.0758 16.2638 19.6173 16.3781ZM14.5618 13.2826C14.1321 13.3897 13.7584 13.6558 13.5136 14.0288C13.2688 14.4019 13.1704 14.8552 13.2375 15.3004L13.2745 15.4828C13.3872 15.9341 13.6664 16.3255 14.0542 16.5758C14.442 16.8261 14.9086 16.9161 15.3574 16.8273C15.8061 16.7384 16.2027 16.4775 16.4648 16.0985C16.7269 15.7195 16.8346 15.2516 16.7654 14.7917L16.7284 14.6092C16.6122 14.1431 16.3187 13.7414 15.9123 13.4926C15.506 13.2438 15.0202 13.1683 14.5618 13.2826ZM9.50623 10.1871C9.07656 10.2942 8.70288 10.5603 8.45805 10.9333C8.21322 11.3064 8.11481 11.7597 8.18199 12.2049L8.21599 12.3756L8.26905 12.5541C8.41889 12.9785 8.71864 13.3323 9.10989 13.5466C9.50113 13.7608 9.95583 13.8202 10.3854 13.7131C10.8149 13.606 11.1885 13.3401 11.4334 12.9672C11.6782 12.5944 11.7768 12.1413 11.7098 11.6962L11.6758 11.5254L11.6228 11.347C11.4731 10.9224 11.1734 10.5683 10.7821 10.3539C10.3907 10.1394 9.93591 10.08 9.50623 10.1871ZM17.5723 8.17597C17.1427 8.28312 16.769 8.54917 16.5242 8.92222C16.2793 9.29527 16.1809 9.74859 16.2481 10.1938L16.285 10.3762C16.3978 10.8275 16.677 11.2189 17.0647 11.4692C17.4525 11.7195 17.9191 11.8095 18.3679 11.7207C18.8167 11.6318 19.2132 11.3709 19.4753 10.9919C19.7375 10.6129 19.8451 10.145 19.7759 9.68507L19.739 9.50261C19.6228 9.03647 19.3292 8.63482 18.9229 8.38603C18.5165 8.13724 18.0307 8.06168 17.5723 8.17597Z" fill="#373737"/>
</svg>
