<svg width="30" height="30" viewBox="0 0 30 30" fill="none" xmlns="http://www.w3.org/2000/svg">
<path fill-rule="evenodd" clip-rule="evenodd" d="M19.2845 2.69049C20.1662 2.47059 21.1001 2.60163 21.895 3.05678C22.6899 3.51194 23.2858 4.25681 23.5607 5.13898L23.6178 5.34377L27.1236 19.4045C27.3472 20.3011 27.2254 21.2478 26.7831 22.051C26.3409 22.8542 25.6116 23.4531 24.7444 23.7252L24.5431 23.7816L10.7155 27.2292C9.83376 27.4491 8.8999 27.3181 8.105 26.8629C7.3101 26.4077 6.71424 25.6629 6.43935 24.7807L6.38217 24.5759L2.87643 10.5152C2.65283 9.61858 2.77462 8.67183 3.21688 7.86866C3.65914 7.06548 4.38844 6.46659 5.25556 6.19452L5.4569 6.1381L19.2845 2.69049ZM11.5512 18.3088C11.1216 18.416 10.7479 18.682 10.5031 19.0551C10.2582 19.4281 10.1598 19.8815 10.227 20.3266L10.261 20.4974L10.3141 20.6758C10.4639 21.1002 10.7637 21.4541 11.1549 21.6683C11.5461 21.8826 12.0008 21.942 12.4304 21.8349C12.8599 21.7278 13.2335 21.4619 13.4784 21.089C13.7232 20.7161 13.8218 20.263 13.7548 19.8179L13.7208 19.6472L13.6678 19.4688C13.5181 19.0442 13.2184 18.6901 12.8271 18.4757C12.4358 18.2612 11.9809 18.2017 11.5512 18.3088ZM19.6173 16.2977C19.1877 16.4049 18.814 16.6709 18.5692 17.044C18.3243 17.417 18.2259 17.8704 18.2931 18.3155L18.33 18.498C18.4428 18.9493 18.722 19.3407 19.1097 19.591C19.4975 19.8413 19.9641 19.9313 20.4129 19.8425C20.8617 19.7536 21.2582 19.4927 21.5204 19.1137C21.7825 18.7347 21.8901 18.2668 21.8209 17.8068L21.784 17.6244C21.6678 17.1582 21.3742 16.7566 20.9679 16.5078C20.5616 16.259 20.0758 16.1834 19.6173 16.2977ZM14.5618 13.2022C14.1321 13.3094 13.7584 13.5754 13.5136 13.9485C13.2688 14.3215 13.1704 14.7749 13.2375 15.2201L13.2745 15.4025C13.3872 15.8538 13.6664 16.2452 14.0542 16.4955C14.442 16.7458 14.9086 16.8358 15.3574 16.747C15.8061 16.6581 16.2027 16.3972 16.4648 16.0182C16.7269 15.6392 16.8346 15.1713 16.7654 14.7113L16.7284 14.5289C16.6122 14.0627 16.3187 13.6611 15.9123 13.4123C15.506 13.1635 15.0202 13.088 14.5618 13.2022ZM9.50623 10.1068C9.07656 10.2139 8.70288 10.4799 8.45805 10.853C8.21322 11.2261 8.11481 11.6794 8.18199 12.1246L8.21599 12.2953L8.26905 12.4737C8.41889 12.8981 8.71864 13.252 9.10989 13.4662C9.50113 13.6805 9.95583 13.7399 10.3854 13.6328C10.8149 13.5257 11.1885 13.2598 11.4334 12.8869C11.6782 12.5141 11.7768 12.0609 11.7098 11.6159L11.6758 11.4451L11.6228 11.2667C11.4731 10.8421 11.1734 10.488 10.7821 10.2736C10.3907 10.0591 9.93591 9.99965 9.50623 10.1068ZM17.5723 8.09565C17.1427 8.2028 16.769 8.46884 16.5242 8.8419C16.2793 9.21495 16.1809 9.66827 16.2481 10.1135L16.285 10.2959C16.3978 10.7472 16.677 11.1386 17.0647 11.3889C17.4525 11.6392 17.9191 11.7292 18.3679 11.6404C18.8167 11.5515 19.2132 11.2906 19.4753 10.9116C19.7375 10.5326 19.8451 10.0647 19.7759 9.60475L19.739 9.42229C19.6228 8.95615 19.3292 8.5545 18.9229 8.30571C18.5165 8.05692 18.0307 7.98136 17.5723 8.09565Z" fill="#373737"/>
</svg>
