<svg width="16" height="16" viewBox="0 0 16 16" fill="none" xmlns="http://www.w3.org/2000/svg">
<path d="M1.70711 8.64641C1.31658 8.25588 0.683417 8.25588 0.292893 8.64641C-0.0976311 9.03693 -0.0976311 9.6701 0.292893 10.0606L1.70711 8.64641ZM1 9.35352L0.292893 10.0606L5.29289 15.0606L6 14.3535L6.70711 13.6464L1.70711 8.64641L1 9.35352Z" fill="#373737"/>
<path d="M5.64648 14L14.6465 5" stroke="#373737" stroke-width="2" stroke-linecap="round"/>
<path d="M1.70711 4.64641C1.31658 4.25588 0.683417 4.25588 0.292893 4.64641C-0.0976311 5.03693 -0.0976311 5.6701 0.292893 6.06062L1.70711 4.64641ZM1 5.35352L0.292893 6.06062L5.29289 11.0606L6 10.3535L6.70711 9.64641L1.70711 4.64641L1 5.35352Z" fill="#373737"/>
<path d="M5.64648 10L14.6465 1" stroke="#373737" stroke-width="2" stroke-linecap="round"/>
</svg>
