<svg width="16" height="20" viewBox="0 0 16 20" fill="none" xmlns="http://www.w3.org/2000/svg">
<path d="M15 0C15.2652 0 15.5196 0.105357 15.7071 0.292893C15.8946 0.48043 16 0.734784 16 1V19C16 19.2652 15.8946 19.5196 15.7071 19.7071C15.5196 19.8946 15.2652 20 15 20H1C0.734784 20 0.48043 19.8946 0.292893 19.7071C0.105357 19.5196 0 19.2652 0 19V1C0 0.734784 0.105357 0.48043 0.292893 0.292893C0.48043 0.105357 0.734784 0 1 0H15ZM8 5C7.3034 5.00076 6.61465 5.14706 5.97789 5.42954C5.34114 5.71201 4.77043 6.12442 4.30237 6.64033C3.8343 7.15624 3.4792 7.76426 3.25983 8.42542C3.04046 9.08658 2.96166 9.78627 3.02849 10.4797C3.09531 11.173 3.30629 11.8448 3.64789 12.4519C3.98949 13.059 4.45417 13.588 5.01215 14.005C5.57013 14.4221 6.2091 14.7179 6.88808 14.8736C7.56706 15.0292 8.27108 15.0413 8.955 14.909L8 13C7.20435 13 6.44129 12.6839 5.87868 12.1213C5.31607 11.5587 5 10.7956 5 10C5 9.20435 5.31607 8.44129 5.87868 7.87868C6.44129 7.31607 7.20435 7 8 7C9.598 7 11 8.34 11 10H8.5L10.628 14.254C11.5537 13.6823 12.2676 12.8242 12.6615 11.81C13.0553 10.7957 13.1076 9.68071 12.8104 8.63408C12.5131 7.58746 11.8826 6.66634 11.0145 6.0105C10.1464 5.35466 9.08801 4.99988 8 5Z" fill="#373737"/>
</svg>
