<svg width="30" height="30" viewBox="0 0 30 30" fill="none" xmlns="http://www.w3.org/2000/svg">
<path d="M25.3014 13.224C25.7237 13.224 26.1308 13.3917 26.4434 13.6942C26.756 13.9968 26.9517 14.4127 26.9922 14.8606L27.0002 15.0344V19.8623C27.0001 21.2585 26.4957 22.6011 25.5914 23.6113C24.6872 24.6216 23.4526 25.2219 22.144 25.2877L21.904 25.2937H12.3458L12.3231 25.6703L12.3107 25.8392C12.2473 26.707 11.4624 27.2514 10.8033 26.8833L10.4477 26.6805L10.031 26.4282L9.80108 26.2846L9.30392 25.9599C8.94978 25.7215 8.6016 25.4732 8.25977 25.2152L7.82376 24.8773L7.45797 24.5816L7.30282 24.4524C6.74903 23.9817 6.77055 23.0101 7.35944 22.514L7.51346 22.3849L7.87585 22.0928L8.3062 21.7609L8.80223 21.3976C9.06841 21.2082 9.33799 21.0243 9.61082 20.846L10.0933 20.5382L10.5179 20.2836L10.8758 20.0784C11.5293 19.7163 12.2427 20.181 12.305 20.9908L12.348 21.6728H21.904C22.3262 21.6728 22.7334 21.5051 23.046 21.2025C23.3586 20.8999 23.5542 20.4841 23.5948 20.0361L23.6027 19.8623V15.0344C23.6027 14.5543 23.7817 14.0938 24.1002 13.7543C24.4188 13.4147 24.8509 13.224 25.3014 13.224ZM21.6797 5.59955L22.0353 5.80233L22.4521 6.05458C22.5276 6.09964 22.6042 6.14752 22.682 6.19821L23.1791 6.52289C23.5333 6.76128 23.8815 7.0096 24.2233 7.26759L24.6593 7.60554L25.0251 7.90125L25.1802 8.03039C25.734 8.50111 25.7125 9.47272 25.1236 9.96879L24.9696 10.0979L24.6072 10.39L24.1769 10.7219C23.7511 11.0414 23.316 11.3465 22.8722 11.6368L22.3898 11.9446L21.9651 12.1993L21.6073 12.4045C20.9538 12.7665 20.2403 12.3019 20.1792 11.492L20.1339 10.81H10.5791C10.1286 10.81 9.69649 11.0008 9.37792 11.3403C9.05934 11.6798 8.88037 12.1403 8.88037 12.6205V17.4484C8.88037 17.9285 8.7014 18.389 8.38282 18.7286C8.06425 19.0681 7.63217 19.2588 7.18164 19.2588C6.73111 19.2588 6.29903 19.0681 5.98046 18.7286C5.66188 18.389 5.48291 17.9285 5.48291 17.4484V12.6205C5.48291 11.18 6.01983 9.79852 6.97555 8.77994C7.93127 7.76137 9.22751 7.18913 10.5791 7.18913H20.1373L20.1724 6.64358C20.2358 5.77577 21.0206 5.23143 21.6797 5.59955Z" fill="#373737"/>
<circle cx="8.5" cy="9.5" r="5.5" fill="#373737"/>
</svg>
