<svg width="30" height="30" viewBox="0 0 30 30" fill="none" xmlns="http://www.w3.org/2000/svg">
<path d="M25.3014 12.224C25.7237 12.224 26.1308 12.3917 26.4434 12.6942C26.756 12.9968 26.9517 13.4127 26.9922 13.8606L27.0002 14.0344V18.8623C27.0001 20.2585 26.4957 21.6011 25.5914 22.6113C24.6872 23.6216 23.4526 24.2219 22.144 24.2877L21.904 24.2937H12.3458L12.3231 24.6703L12.3107 24.8392C12.2473 25.707 11.4624 26.2514 10.8033 25.8833L10.4477 25.6805L10.031 25.4282L9.80108 25.2846L9.30392 24.9599C8.94978 24.7215 8.6016 24.4732 8.25977 24.2152L7.82376 23.8773L7.45797 23.5816L7.30282 23.4524C6.74903 22.9817 6.77055 22.0101 7.35944 21.514L7.51346 21.3849L7.87585 21.0928L8.3062 20.7609L8.80223 20.3976C9.06841 20.2082 9.33799 20.0243 9.61082 19.846L10.0933 19.5382L10.5179 19.2836L10.8758 19.0784C11.5293 18.7163 12.2427 19.181 12.305 19.9908L12.348 20.6728H21.904C22.3262 20.6728 22.7334 20.5051 23.046 20.2025C23.3586 19.8999 23.5542 19.4841 23.5948 19.0361L23.6027 18.8623V14.0344C23.6027 13.5543 23.7817 13.0938 24.1002 12.7543C24.4188 12.4147 24.8509 12.224 25.3014 12.224ZM21.6797 4.59955L22.0353 4.80233L22.4521 5.05458C22.5276 5.09964 22.6042 5.14752 22.682 5.19821L23.1791 5.52289C23.5333 5.76128 23.8815 6.0096 24.2233 6.26759L24.6593 6.60554L25.0251 6.90125L25.1802 7.03039C25.734 7.50111 25.7125 8.47272 25.1236 8.96879L24.9696 9.09793L24.6072 9.39002L24.1769 9.72194C23.7511 10.0414 23.316 10.3465 22.8722 10.6368L22.3898 10.9446L21.9651 11.1993L21.6073 11.4045C20.9538 11.7665 20.2403 11.3019 20.1792 10.492L20.1339 9.81004H10.5791C10.1286 9.81004 9.69649 10.0008 9.37792 10.3403C9.05934 10.6798 8.88037 11.1403 8.88037 11.6205V16.4484C8.88037 16.9285 8.7014 17.389 8.38282 17.7286C8.06425 18.0681 7.63217 18.2588 7.18164 18.2588C6.73111 18.2588 6.29903 18.0681 5.98046 17.7286C5.66188 17.389 5.48291 16.9285 5.48291 16.4484V11.6205C5.48291 10.18 6.01983 8.79852 6.97555 7.77994C7.93127 6.76137 9.22751 6.18913 10.5791 6.18913H20.1373L20.1724 5.64358C20.2358 4.77577 21.0206 4.23143 21.6797 4.59955Z" fill="#373737"/>
<circle cx="8.5" cy="8.5" r="5.5" fill="#373737"/>
</svg>
