<svg width="30" height="30" viewBox="0 0 30 30" fill="none" xmlns="http://www.w3.org/2000/svg">
<path d="M25.1053 11.6344C25.5763 11.6344 26.0304 11.8214 26.3791 12.1589C26.7277 12.4964 26.9459 12.9602 26.9912 13.4599L27 13.6538V19.0387C27 20.596 26.4373 22.0935 25.4287 23.2203C24.4201 24.3471 23.0431 25.0167 21.5836 25.09L21.3158 25.0968H10.6547L10.6295 25.5168L10.6156 25.7053C10.5448 26.6732 9.66947 27.2804 8.93432 26.8698L8.53768 26.6436L8.07284 26.3622L7.81642 26.202L7.26189 25.8399C6.86689 25.574 6.47854 25.297 6.09726 25.0093L5.61095 24.6323L5.20295 24.3025L5.02989 24.1584C4.41221 23.6334 4.43621 22.5497 5.09305 21.9964L5.26484 21.8523L5.66905 21.5266L6.14905 21.1563L6.70232 20.7511C6.99921 20.5399 7.2999 20.3348 7.60421 20.1359L8.14232 19.7926L8.616 19.5085L9.01516 19.2797C9.744 18.8758 10.5398 19.3941 10.6093 20.2974L10.6573 21.0581H21.3158C21.7868 21.058 22.2409 20.871 22.5896 20.5335C22.9382 20.196 23.1565 19.7322 23.2017 19.2326L23.2105 19.0387V13.6538C23.2105 13.1182 23.4101 12.6046 23.7655 12.2259C24.1208 11.8472 24.6027 11.6344 25.1053 11.6344ZM21.0657 3.13024L21.4623 3.35641L21.9272 3.63777C22.0114 3.68803 22.0968 3.74143 22.1836 3.79797L22.7381 4.16011C23.1331 4.42601 23.5215 4.70298 23.9027 4.99074L24.3891 5.36768L24.7971 5.69751L24.9701 5.84156C25.5878 6.36659 25.5638 7.45031 24.9069 8.00361L24.7352 8.14766L24.3309 8.47345L23.8509 8.84366C23.376 9.19994 22.8907 9.54025 22.3958 9.86411L21.8577 10.2074L21.384 10.4915L20.9848 10.7203C20.256 11.1242 19.4602 10.6059 19.392 9.70256L19.3415 8.94194H8.68421C8.18169 8.94194 7.69976 9.15469 7.34443 9.53339C6.9891 9.9121 6.78947 10.4257 6.78947 10.9613V16.3462C6.78947 16.8818 6.58985 17.3954 6.23452 17.7741C5.87919 18.1528 5.39725 18.3656 4.89474 18.3656C4.39222 18.3656 3.91029 18.1528 3.55496 17.7741C3.19962 17.3954 3 16.8818 3 16.3462V10.9613C3 9.3546 3.59887 7.8137 4.66487 6.6776C5.73086 5.54149 7.17666 4.90323 8.68421 4.90323H19.3453L19.3844 4.29473C19.4552 3.32679 20.3305 2.71964 21.0657 3.13024Z" fill="#373737"/>
</svg>
