<svg width="16" height="16" viewBox="0 0 16 16" fill="none" xmlns="http://www.w3.org/2000/svg">
<path d="M14.7368 5.75627C15.0508 5.75629 15.3536 5.88095 15.586 6.10595C15.8185 6.33095 15.964 6.64016 15.9941 6.97327L16 7.10251V10.6925C16 11.7307 15.6249 12.729 14.9525 13.4802C14.2801 14.2314 13.3621 14.6778 12.3891 14.7267L12.2105 14.7312H5.10316L5.08632 15.0112L5.07705 15.1368C5.02989 15.7821 4.44632 16.1869 3.95621 15.9132L3.69179 15.7624L3.38189 15.5748L3.21095 15.468L2.84126 15.2266C2.57793 15.0493 2.31903 14.8647 2.06484 14.6728L1.74063 14.4215L1.46863 14.2017L1.35326 14.1056C0.941474 13.7556 0.957474 13.0331 1.39537 12.6643L1.50989 12.5682L1.77937 12.351L2.09937 12.1042L2.46821 11.8341C2.66614 11.6933 2.8666 11.5565 3.06947 11.4239L3.42821 11.1951L3.744 11.0057L4.01011 10.8531C4.496 10.5839 5.02653 10.9294 5.07284 11.5316L5.10484 12.0387H12.2105C12.5245 12.0387 12.8273 11.914 13.0597 11.689C13.2922 11.464 13.4376 11.1548 13.4678 10.8217L13.4737 10.6925V7.10251C13.4737 6.74547 13.6068 6.40305 13.8437 6.15058C14.0805 5.89811 14.4018 5.75627 14.7368 5.75627ZM12.0438 0.0868266L12.3082 0.237605L12.6181 0.42518C12.6742 0.458687 12.7312 0.494287 12.7891 0.531982L13.1587 0.773407C13.4221 0.950671 13.681 1.13532 13.9352 1.32716L14.2594 1.57846L14.5314 1.79834L14.6467 1.89437C15.0585 2.24439 15.0425 2.96687 14.6046 3.33574L14.4901 3.43177L14.2206 3.64897L13.9006 3.89578C13.584 4.13329 13.2605 4.36017 12.9305 4.57607L12.5718 4.80493L12.256 4.9943L11.9899 5.14688C11.504 5.41613 10.9735 5.07059 10.928 4.46837L10.8943 3.96129H3.78947C3.45446 3.96129 3.13317 4.10313 2.89629 4.3556C2.6594 4.60806 2.52632 4.95049 2.52632 5.30753V8.89749C2.52632 9.25454 2.39323 9.59696 2.15635 9.84942C1.91946 10.1019 1.59817 10.2437 1.26316 10.2437C0.928148 10.2437 0.606858 10.1019 0.36997 9.84942C0.133082 9.59696 0 9.25454 0 8.89749V5.30753C0 4.2364 0.399247 3.20914 1.10991 2.45173C1.82058 1.69433 2.78444 1.26882 3.78947 1.26882H10.8968L10.9229 0.863156C10.9701 0.21786 11.5537 -0.186908 12.0438 0.0868266Z" fill="#373737"/>
</svg>
