<svg width="47" height="48" viewBox="0 0 47 48" fill="none" xmlns="http://www.w3.org/2000/svg">
<path d="M18.8116 5.20047C15.0697 5.20047 11.4811 6.687 8.83522 9.33304C6.18933 11.9791 4.70289 15.5679 4.70289 19.3099C4.70289 23.052 6.18933 26.6408 8.83522 29.2868C11.4811 31.9329 15.0697 33.4194 18.8116 33.4194C22.5534 33.4194 26.142 31.9329 28.7879 29.2868C31.4338 26.6408 32.9202 23.052 32.9202 19.3099C32.9202 15.5679 31.4338 11.9791 28.7879 9.33304C26.142 6.687 22.5534 5.20047 18.8116 5.20047ZM1.162e-07 19.3099C0.00042873 16.3161 0.715352 13.3655 2.08535 10.7035C3.45536 8.04149 5.44087 5.74492 7.87688 4.00465C10.3129 2.26438 13.129 1.13067 16.0913 0.697735C19.0536 0.264802 22.0764 0.545152 24.9085 1.51549C27.7406 2.48582 30.3002 4.11811 32.3747 6.27671C34.4492 8.4353 35.9785 11.0579 36.8356 13.9264C37.6927 16.795 37.8529 19.8267 37.3028 22.7696C36.7527 25.7125 35.5082 28.4816 33.6727 30.8468L46.3399 43.5147C46.7683 43.9583 47.0053 44.5523 46.9999 45.1688C46.9946 45.7854 46.7473 46.3752 46.3113 46.8112C45.8753 47.2472 45.2855 47.4946 44.669 47.4999C44.0524 47.5053 43.4585 47.2682 43.015 46.8399L30.3477 34.1719C27.5671 36.3309 24.2364 37.6662 20.7345 38.0261C17.2326 38.386 13.7 37.756 10.5383 36.2076C7.37673 34.6593 4.71298 32.2549 2.85001 29.2677C0.98704 26.2805 -0.000391093 22.8305 1.162e-07 19.3099Z" fill="#373737"/>
</svg>
