<svg width="21" height="20" viewBox="0 0 21 20" fill="none" xmlns="http://www.w3.org/2000/svg">
<path fill-rule="evenodd" clip-rule="evenodd" d="M20.0835 10.0001C20.0835 5.4825 20.0835 3.22371 18.6805 1.81975C17.2756 0.416748 15.0177 0.416748 10.5002 0.416748C5.98258 0.416748 3.72379 0.416748 2.32079 1.81975C0.91683 3.22466 0.91683 5.4825 0.91683 10.0001C0.91683 14.5177 0.91683 16.7765 2.32079 18.1795C3.72283 19.5834 5.98258 19.5834 10.5002 19.5834C15.0177 19.5834 17.2765 19.5834 18.6805 18.1795C20.0835 16.7774 20.0835 14.5177 20.0835 10.0001ZM4.98975 10.0001C4.98975 10.1907 5.06547 10.3735 5.20026 10.5083C5.33505 10.6431 5.51787 10.7188 5.7085 10.7188H10.6822L9.03391 12.3672C8.9633 12.433 8.90666 12.5123 8.86737 12.6005C8.82809 12.6886 8.80697 12.7838 8.80526 12.8803C8.80356 12.9768 8.82131 13.0727 8.85746 13.1622C8.89361 13.2517 8.94742 13.333 9.01567 13.4012C9.08392 13.4695 9.16522 13.5233 9.25472 13.5594C9.34421 13.5956 9.44007 13.6134 9.53658 13.6116C9.63309 13.6099 9.72826 13.5888 9.81643 13.5495C9.90459 13.5103 9.98394 13.4536 10.0497 13.383L12.9247 10.508C13.0593 10.3732 13.1349 10.1906 13.1349 10.0001C13.1349 9.80961 13.0593 9.62693 12.9247 9.49216L10.0497 6.61716C9.98394 6.54655 9.90459 6.48991 9.81643 6.45062C9.72826 6.41134 9.63309 6.39022 9.53658 6.38851C9.44007 6.38681 9.34421 6.40456 9.25472 6.44071C9.16522 6.47686 9.08392 6.53067 9.01567 6.59892C8.94742 6.66717 8.89361 6.74847 8.85746 6.83797C8.82131 6.92746 8.80356 7.02332 8.80526 7.11983C8.80697 7.21634 8.82809 7.31151 8.86737 7.39968C8.90666 7.48785 8.9633 7.5672 9.03391 7.633L10.6822 9.28133H5.7085C5.51787 9.28133 5.33505 9.35706 5.20026 9.49185C5.06547 9.62664 4.98975 9.80946 4.98975 10.0001ZM14.5731 6.16675C14.5731 5.97612 14.6488 5.79331 14.7836 5.65851C14.9184 5.52372 15.1012 5.448 15.2918 5.448C15.4825 5.448 15.6653 5.52372 15.8001 5.65851C15.9349 5.79331 16.0106 5.97612 16.0106 6.16675V13.8334C16.0106 14.024 15.9349 14.2069 15.8001 14.3416C15.6653 14.4764 15.4825 14.5522 15.2918 14.5522C15.1012 14.5522 14.9184 14.4764 14.7836 14.3416C14.6488 14.2069 14.5731 14.024 14.5731 13.8334V6.16675Z" fill="#373737"/>
</svg>
