<svg width="15" height="11" viewBox="0 0 15 11" fill="none" xmlns="http://www.w3.org/2000/svg">
<path d="M13.2906 6.06937L11.5369 5.48499C11.4836 5.46647 11.4257 5.46647 11.3725 5.48499L8.67062 6.46749C8.61605 6.48808 8.55832 6.49907 8.5 6.49999C8.39052 6.49994 8.28409 6.46396 8.19704 6.39757C8.10999 6.33118 8.04714 6.23806 8.01812 6.13249C7.98657 6.00869 8.00257 5.87756 8.06297 5.76498C8.12337 5.65239 8.22378 5.56654 8.34437 5.52437L9.5 5.10437C9.53105 5.09318 9.55784 5.07259 9.57665 5.04547C9.59545 5.01835 9.60534 4.98604 9.60492 4.95303C9.60451 4.92003 9.59382 4.88798 9.57435 4.86133C9.55487 4.83469 9.52757 4.81478 9.49625 4.80437C9.29135 4.73605 9.1037 4.6241 8.94625 4.47624C8.91261 4.44312 8.87028 4.42021 8.82416 4.41014C8.77803 4.40008 8.73 4.40328 8.68563 4.41937L7.17188 4.96937C7.10704 4.9929 7.03805 5.00275 6.96922 4.99833C6.9004 4.9939 6.83323 4.97528 6.77195 4.94364C6.71067 4.912 6.65659 4.86803 6.61312 4.81448C6.56966 4.76093 6.53774 4.69897 6.51937 4.63249C6.48782 4.50869 6.50382 4.37756 6.56422 4.26498C6.62462 4.15239 6.72503 4.06654 6.84562 4.02437L8.125 3.55812C8.15701 3.5465 8.1863 3.52847 8.21109 3.50513C8.23588 3.48179 8.25564 3.45363 8.26916 3.42238C8.28267 3.39113 8.28967 3.35745 8.2897 3.3234C8.28974 3.28935 8.28282 3.25565 8.26937 3.22437L8.07812 2.77687C8.05304 2.71799 8.00632 2.67097 7.9476 2.64551C7.88888 2.62005 7.82263 2.61807 7.7625 2.63999L6.16875 3.21937C6.10392 3.2429 6.03492 3.25275 5.9661 3.24833C5.89727 3.2439 5.8301 3.22528 5.76882 3.19364C5.70754 3.162 5.65347 3.11803 5.61 3.06448C5.56653 3.01093 5.53461 2.94897 5.51625 2.88249C5.48469 2.75869 5.50069 2.62756 5.56109 2.51498C5.62149 2.40239 5.7219 2.31654 5.8425 2.27437L7.3425 1.72874C7.37443 1.71712 7.40365 1.69911 7.42839 1.67581C7.45312 1.65251 7.47284 1.62442 7.48636 1.59324C7.49987 1.56207 7.50688 1.52846 7.50697 1.49449C7.50706 1.46051 7.50022 1.42687 7.48687 1.39562L7.14937 0.599995V0.593745C7.04608 0.362052 6.85859 0.178277 6.62487 0.0796383C6.39116 -0.019 6.12869 -0.0251282 5.89062 0.0624948L1.15812 1.78062C0.965457 1.85119 0.799063 1.97914 0.681382 2.14722C0.563702 2.31531 0.500395 2.51544 0.5 2.72062V10C0.5 10.2652 0.605357 10.5196 0.792893 10.7071C0.98043 10.8946 1.23478 11 1.5 11H14C14.2652 11 14.5196 10.8946 14.7071 10.7071C14.8946 10.5196 15 10.2652 15 10V8.44125C15 7.91652 14.835 7.40508 14.5282 6.97938C14.2214 6.55369 13.7884 6.23531 13.2906 6.06937ZM14 10H1.5V9H14V10Z" fill="#860000"/>
</svg>
