<svg width="16" height="14" viewBox="0 0 16 14" fill="none" xmlns="http://www.w3.org/2000/svg">
<path d="M10.7019 10.1885C10.5944 10.188 10.488 10.1662 10.389 10.1244C10.29 10.0826 10.2002 10.0215 10.125 9.94469C9.97362 9.79245 9.88867 9.5865 9.88867 9.37183C9.88867 9.15715 9.97362 8.95121 10.125 8.79896C10.4272 8.49709 10.6669 8.13862 10.8305 7.74404C10.994 7.34946 11.0782 6.9265 11.0782 6.49936C11.0782 6.07222 10.994 5.64927 10.8305 5.25469C10.6669 4.86011 10.4272 4.50163 10.125 4.19977C9.99184 4.04432 9.92228 3.84436 9.93018 3.63986C9.93808 3.43535 10.0229 3.24136 10.1676 3.09664C10.3123 2.95193 10.5063 2.86715 10.7108 2.85925C10.9153 2.85135 11.1153 2.92091 11.2707 3.05403C12.1837 3.96819 12.6965 5.20736 12.6965 6.49936C12.6965 7.79137 12.1837 9.03054 11.2707 9.94469C11.1207 10.0978 10.9162 10.1854 10.7019 10.1885Z" fill="#373737"/>
<path d="M7.62198 0.0635323C7.474 0.00130558 7.31091 -0.0156955 7.15328 0.0146739C6.99564 0.0450433 6.85054 0.121422 6.73627 0.234174L3.72973 3.24884H1.62516C1.19414 3.24884 0.780773 3.42006 0.475997 3.72484C0.171221 4.02961 0 4.44298 0 4.87399V8.12431C0 8.55532 0.171221 8.96869 0.475997 9.27346C0.780773 9.57824 1.19414 9.74946 1.62516 9.74946H3.72973L6.73627 12.7641C6.8122 12.8394 6.90225 12.899 7.00125 12.9395C7.10025 12.9799 7.20626 13.0004 7.3132 12.9998C7.41979 13.0025 7.52555 12.9803 7.62198 12.9348C7.77037 12.8738 7.8974 12.7703 7.98706 12.6373C8.07671 12.5042 8.12498 12.3476 8.12578 12.1872V0.811104C8.12498 0.650681 8.07671 0.494083 7.98706 0.361048C7.8974 0.228013 7.77037 0.124492 7.62198 0.0635323Z" fill="#373737"/>
</svg>
