<svg width="16" height="14" viewBox="0 0 16 14" fill="none" xmlns="http://www.w3.org/2000/svg">
<path d="M10.2542 9.9641C10.1516 9.96366 10.0502 9.94188 9.95574 9.90003C9.86128 9.85819 9.77568 9.79711 9.7039 9.72033C9.55954 9.56808 9.47852 9.36213 9.47852 9.14746C9.47852 8.93279 9.55954 8.72684 9.7039 8.57459C9.99215 8.27273 10.2208 7.91426 10.3768 7.51967C10.5328 7.12509 10.6132 6.70214 10.6132 6.275C10.6132 5.84786 10.5328 5.4249 10.3768 5.03032C10.2208 4.63574 9.99215 4.27727 9.7039 3.9754C9.57692 3.81996 9.51057 3.62 9.51811 3.41549C9.52564 3.21099 9.6065 3.01699 9.74454 2.87228C9.88257 2.72756 10.0676 2.64278 10.2627 2.63488C10.4577 2.62698 10.6485 2.69655 10.7967 2.82967C11.6676 3.74382 12.1567 4.983 12.1567 6.275C12.1567 7.567 11.6676 8.80618 10.7967 9.72033C10.6536 9.87343 10.4586 9.96105 10.2542 9.9641Z" fill="#373737"/>
<path d="M13.8689 11C13.754 10.9994 13.6404 10.9697 13.5346 10.9126C13.4288 10.8555 13.3329 10.7722 13.2525 10.6674C13.0908 10.4597 13 10.1787 13 9.88586C13 9.59299 13.0908 9.31202 13.2525 9.10431C13.5753 8.69247 13.8315 8.20342 14.0062 7.66509C14.181 7.12677 14.271 6.54974 14.271 5.967C14.271 5.38425 14.181 4.80722 14.0062 4.2689C13.8315 3.73057 13.5753 3.24152 13.2525 2.82968C13.1102 2.61761 13.0359 2.34481 13.0443 2.0658C13.0528 1.7868 13.1434 1.52213 13.298 1.3247C13.4526 1.12727 13.6599 1.0116 13.8784 1.00083C14.0969 0.99005 14.3105 1.08495 14.4766 1.26657C15.4521 2.51374 16 4.20433 16 5.967C16 7.72966 15.4521 9.42025 14.4766 10.6674C14.3163 10.8763 14.0979 10.9958 13.8689 11Z" fill="#373737"/>
<path d="M7.27005 0.0635323C7.1289 0.00130558 6.97334 -0.0156955 6.82298 0.0146739C6.67263 0.0450433 6.53423 0.121422 6.42523 0.234174L3.55752 3.24884H1.55012C1.139 3.24884 0.744722 3.42006 0.454019 3.72484C0.163315 4.02961 0 4.44298 0 4.87399V8.12431C0 8.55532 0.163315 8.96869 0.454019 9.27346C0.744722 9.57824 1.139 9.74946 1.55012 9.74946H3.55752L6.42523 12.7641C6.49766 12.8394 6.58354 12.899 6.67798 12.9395C6.77241 12.9799 6.87352 13.0004 6.97552 12.9998C7.07719 13.0025 7.17806 12.9803 7.27005 12.9348C7.41159 12.8738 7.53275 12.7703 7.61826 12.6373C7.70378 12.5042 7.74982 12.3476 7.75058 12.1872V0.811104C7.74982 0.650681 7.70378 0.494083 7.61826 0.361048C7.53275 0.228013 7.41159 0.124492 7.27005 0.0635323Z" fill="#373737"/>
</svg>
