<svg width="18" height="20" viewBox="0 0 18 20" fill="none" xmlns="http://www.w3.org/2000/svg">
<path d="M15.6172 5.61711L12.0532 2.05411C11.0389 1.03911 10.5322 0.531113 9.90849 0.266113L9.90039 3.00011C9.90039 5.35711 9.90039 6.53611 10.5592 7.26811C11.218 8.00011 12.2791 8.00011 14.4004 8.00011H17.6224C17.2966 7.29611 16.7116 6.71211 15.6172 5.61711Z" fill="#373737"/>
<path fill-rule="evenodd" clip-rule="evenodd" d="M7.2 20H10.8C14.1939 20 15.8913 20 16.9452 18.828C17.9991 17.656 18 15.771 18 12V11.563C18 10.69 18 10.034 17.9613 9.5H14.3145C13.3272 9.5 12.4542 9.5 11.7513 9.395C10.989 9.281 10.2267 9.02 9.6048 8.329C8.982 7.637 8.7471 6.79 8.6445 5.943C8.55 5.162 8.55 4.193 8.55 3.095L8.559 0.261C8.559 0.178333 8.565 0.097 8.577 0.017C8.2089 -4.09782e-08 7.7724 0 7.227 0C3.8151 0 2.1087 -1.19209e-07 1.0548 1.172C-1.07288e-07 2.343 0 4.229 0 8V12C0 15.771 -1.07288e-07 17.657 1.0548 18.828C2.1096 19.999 3.8061 20 7.2 20ZM6.3117 10.953C6.18659 10.8227 6.02151 10.7501 5.85 10.7501C5.67849 10.7501 5.51341 10.8227 5.3883 10.953L3.5883 12.828C3.46078 12.9649 3.38684 13.152 3.38246 13.3489C3.37808 13.5459 3.44361 13.7368 3.5649 13.8805C3.68618 14.0242 3.85348 14.1091 4.03064 14.1169C4.20781 14.1246 4.3806 14.0546 4.5117 13.922L5.175 13.232V16.5C5.175 16.6989 5.24612 16.8897 5.3727 17.0303C5.49929 17.171 5.67098 17.25 5.85 17.25C6.02902 17.25 6.20071 17.171 6.3273 17.0303C6.45388 16.8897 6.525 16.6989 6.525 16.5V13.231L7.1883 13.922C7.3194 14.0546 7.49219 14.1246 7.66936 14.1169C7.84652 14.1091 8.01382 14.0242 8.1351 13.8805C8.25639 13.7368 8.32192 13.5459 8.31754 13.3489C8.31316 13.152 8.23922 12.9649 8.1117 12.828L6.3117 10.953Z" fill="#373737"/>
</svg>
