<svg width="19" height="20" viewBox="0 0 19 20" fill="none" xmlns="http://www.w3.org/2000/svg">
<path d="M16.4846 5.61711L12.7226 2.05411C11.6519 1.03911 11.1171 0.531113 10.4587 0.266113L10.4502 3.00011C10.4502 5.35711 10.4502 6.53611 11.1456 7.26811C11.841 8.00011 12.961 8.00011 15.2002 8.00011H18.6012C18.2573 7.29611 17.6398 6.71211 16.4846 5.61711Z" fill="#373737"/>
<path fill-rule="evenodd" clip-rule="evenodd" d="M7.6 20H11.4C14.9824 20 16.7741 20 17.8866 18.828C18.999 17.656 19 15.771 19 12V11.563C19 10.69 19 10.034 18.9592 9.5H15.1098C14.0676 9.5 13.1461 9.5 12.4041 9.395C11.5995 9.281 10.7948 9.02 10.1384 8.329C9.481 7.637 9.23305 6.79 9.12475 5.943C9.025 5.162 9.025 4.193 9.025 3.095L9.0345 0.261C9.0345 0.178333 9.04083 0.097 9.0535 0.017C8.66495 -4.09782e-08 8.2042 0 7.6285 0C4.02705 0 2.22585 -1.19209e-07 1.1134 1.172C-1.13249e-07 2.343 0 4.229 0 8V12C0 15.771 -1.13249e-07 17.657 1.1134 18.828C2.2268 19.999 4.01755 20 7.6 20ZM6.66235 10.953C6.53029 10.8227 6.35604 10.7501 6.175 10.7501C5.99396 10.7501 5.81971 10.8227 5.68765 10.953L3.78765 12.828C3.65304 12.9649 3.57499 13.152 3.57037 13.3489C3.56575 13.5459 3.63492 13.7368 3.76295 13.8805C3.89097 14.0242 4.06756 14.1091 4.25457 14.1169C4.44157 14.1246 4.62397 14.0546 4.76235 13.922L5.4625 13.232V16.5C5.4625 16.6989 5.53757 16.8897 5.67119 17.0303C5.80481 17.171 5.98603 17.25 6.175 17.25C6.36397 17.25 6.54519 17.171 6.67881 17.0303C6.81243 16.8897 6.8875 16.6989 6.8875 16.5V13.231L7.58765 13.922C7.72603 14.0546 7.90843 14.1246 8.09543 14.1169C8.28244 14.1091 8.45903 14.0242 8.58705 13.8805C8.71508 13.7368 8.78425 13.5459 8.77963 13.3489C8.77501 13.152 8.69696 12.9649 8.56235 12.828L6.66235 10.953Z" fill="#373737"/>
</svg>
